<?xml version="1.0" encoding="UTF-8" standalone="no"?><!-- Generator: Gravit.io --><svg xmlns="http://www.w3.org/2000/svg" xmlns:xlink="http://www.w3.org/1999/xlink" style="isolation:isolate" viewBox="0 0 1050 594.02" width="1050pt" height="594.02pt"><defs><clipPath id="_clipPath_dOqoAfX475M3MyM80la3XUNKQJa9P4H0"><rect width="1050" height="594.02"/></clipPath></defs><g clip-path="url(#_clipPath_dOqoAfX475M3MyM80la3XUNKQJa9P4H0)"><g opacity="0.1"><ellipse vector-effect="non-scaling-stroke" cx="525" cy="561.02" rx="525" ry="33" fill="rgb(78,115,223)"/></g><path d=" M 497.09 549.99 L 318.9 547.71 L 319.43 543.14 L 328.04 467.75 L 484.53 467.75 L 496.04 543.14 L 496.92 548.85 L 497.09 549.99 L 497.09 549.99 Z " fill="rgb(208,210,213)"/><g opacity="0.1"><path d=" M 496.92 548.85 L 408 548.85 L 318.9 547.71 L 319.43 543.14 L 496.04 543.14 L 496.92 548.85 L 496.92 548.85 Z " fill="rgb(0,0,0)"/></g><rect x="289.2" y="544.28" width="236.45" height="5.71" transform="matrix(1,0,0,1,0,0)" fill="rgb(208,210,213)"/><path d=" M 751.24 14.94 C 751.273 6.731 744.649 0.049 736.44 0.01 L 76.12 0.01 C 72.176 0.029 68.401 1.613 65.626 4.415 C 62.85 7.217 61.301 11.006 61.32 14.95 L 61.32 415.21 L 751.24 415.21 L 751.24 14.94 Z " fill="rgb(108,72,21)"/><path d=" M 61.32 411.21 L 61.32 458.09 C 61.32 466.264 67.946 472.89 76.12 472.89 L 736.44 472.89 C 744.614 472.89 751.24 466.264 751.24 458.09 L 751.24 411.21 L 61.32 411.21 Z " fill="rgb(208,210,213)"/><rect x="89.88" y="25.13" width="636.23" height="359.81" transform="matrix(1,0,0,1,0,0)" fill="rgb(255,255,255)"/><path d=" M 409.71 455.1 C 414.441 455.103 418.912 452.936 421.84 449.22 L 421.84 449.22 C 422.279 448.661 422.679 448.073 423.04 447.46 L 414.57 446.01 L 423.72 446.08 C 425.494 442.22 425.598 437.8 424.01 433.86 L 411.74 440.22 L 423.06 431.9 C 420.162 426.92 414.73 423.97 408.975 424.253 C 403.22 424.536 398.103 428.003 395.707 433.244 C 393.312 438.484 394.038 444.623 397.59 449.16 L 397.59 449.16 C 400.504 452.896 404.972 455.086 409.71 455.1 L 409.71 455.1 Z " fill="rgb(188,126,37)"/><g opacity="0.1"><path d=" M 425.13 472.89 L 496.22 544.28 L 485.31 472.89 L 425.13 472.89 L 425.13 472.89 Z " fill="rgb(0,0,0)"/></g><g opacity="0.1"><path d=" M 634.94 211.11 C 634.945 211.04 634.945 210.97 634.94 210.9 C 634.711 205.946 633.816 201.045 632.28 196.33 C 632.19 196.06 632.11 195.79 632.01 195.53 C 628.112 184.14 620.632 174.318 610.69 167.53 C 587.642 151.832 556.523 155.685 538 176.53 C 537.06 171.218 535.576 166.017 533.57 161.01 C 518.981 162.858 504.256 163.407 489.57 162.65 C 498.574 166.803 507.91 170.195 517.48 172.79 L 517.14 174.06 C 506.403 171.149 495.961 167.242 485.95 162.39 L 482.95 160.93 L 486.31 161.15 C 501.924 162.168 517.6 161.716 533.13 159.8 C 529.763 151.792 525.1 144.393 519.33 137.9 C 494.15 135.36 469.16 130.08 445.85 119.6 L 446.39 118.41 C 469.09 128.61 493.39 133.86 518 136.41 C 501.143 118.331 476.765 109.232 452.185 111.843 C 427.604 114.455 405.683 128.473 393 149.69 C 390.639 127.149 381.249 105.921 366.16 89.01 C 352.73 94.38 338.862 98.582 324.71 101.57 C 303.422 106.09 281.635 107.818 259.9 106.71 C 268.901 110.861 278.234 114.253 287.8 116.85 L 287.46 118.11 C 276.724 115.201 266.282 111.297 256.27 106.45 L 253.27 104.98 L 256.62 105.2 C 293.655 107.64 330.768 101.767 365.24 88.01 C 363.95 86.59 362.61 85.2 361.24 83.84 C 318.18 84.71 271.29 84.29 228.84 68.84 C 196.881 88.57 177.429 123.452 177.44 161.01 C 177.44 181.33 183.02 209.28 192.74 237.32 C 197.073 249.87 202.169 262.143 208 274.07 C 211 280.07 214.12 285.97 217.44 291.59 L 217.44 291.59 C 221.43 298.416 225.825 304.998 230.6 311.3 C 231.46 312.43 232.33 313.54 233.2 314.62 C 238.102 320.812 243.602 326.506 249.62 331.62 L 249.62 331.62 Q 251.44 333.14 253.29 334.52 C 256.6 336.992 260.124 339.164 263.82 341.01 C 269.962 344.201 276.718 346.036 283.63 346.39 C 284.18 346.39 284.72 346.39 285.27 346.39 L 285.27 346.62 L 579.27 346.62 L 579.27 346.39 L 579.49 346.39 C 581.195 346.388 582.887 346.09 584.49 345.51 C 594.89 341.82 604.49 327.01 612.42 308.3 C 614.18 304.15 615.86 299.81 617.42 295.35 C 618.83 291.42 620.17 287.35 621.42 283.35 C 625.106 271.472 628.193 259.417 630.67 247.23 C 633.47 233.35 635.02 221.23 635.02 213.55 C 635 212.77 635 211.94 634.94 211.11 Z " fill="rgb(78,115,223)"/></g><g opacity="0.1"><path d=" M 359.91 82.51 C 324.872 49.116 271.882 43.143 230.29 67.9 C 271.83 82.78 317.68 83.33 359.91 82.51 Z " fill="rgb(78,115,223)"/></g><g opacity="0.1"><path d=" M 600.72 324.06 L 555.35 245.47 C 555.091 245.022 554.613 244.746 554.095 244.746 C 553.577 244.746 553.099 245.022 552.84 245.47 L 507.47 324.06 C 507.214 324.507 507.215 325.057 507.472 325.504 C 507.729 325.95 508.205 326.227 508.72 326.23 L 522.26 326.23 C 523.055 326.235 523.699 326.875 523.71 327.67 L 523.71 344.46 C 523.707 344.844 523.858 345.212 524.128 345.485 C 524.399 345.757 524.766 345.91 525.15 345.91 L 542.81 345.91 C 543.195 345.91 543.563 345.757 543.835 345.485 C 544.107 345.213 544.26 344.845 544.26 344.46 L 544.26 336.36 C 544.257 335.976 544.408 335.608 544.678 335.335 C 544.949 335.063 545.316 334.91 545.7 334.91 L 562.49 334.91 C 562.875 334.91 563.243 335.063 563.515 335.335 C 563.787 335.607 563.94 335.975 563.94 336.36 L 563.94 344.46 C 563.94 344.845 564.093 345.213 564.365 345.485 C 564.637 345.757 565.005 345.91 565.39 345.91 L 583 345.91 C 583.625 345.91 584.179 345.505 584.37 344.91 C 584.423 344.763 584.45 344.607 584.45 344.45 L 584.45 327.67 C 584.455 326.873 585.103 326.23 585.9 326.23 L 599.43 326.23 C 599.953 326.241 600.441 325.971 600.708 325.521 C 600.975 325.072 600.98 324.514 600.72 324.06 L 600.72 324.06 Z  M 537.46 332.75 C 537.198 333.022 536.838 333.177 536.46 333.18 L 530.09 333.18 C 529.705 333.18 529.337 333.027 529.065 332.755 C 528.793 332.483 528.64 332.115 528.64 331.73 C 528.651 330.934 529.294 330.291 530.09 330.28 L 536.46 330.28 C 536.845 330.28 537.213 330.433 537.485 330.705 C 537.757 330.977 537.91 331.345 537.91 331.73 C 537.908 332.118 537.745 332.487 537.46 332.75 L 537.46 332.75 Z  M 579.14 332.75 C 578.878 333.022 578.518 333.177 578.14 333.18 L 571.77 333.18 C 571.19 333.168 570.674 332.812 570.456 332.274 C 570.239 331.737 570.362 331.122 570.77 330.71 C 571.032 330.438 571.392 330.283 571.77 330.28 L 578.14 330.28 C 578.525 330.28 578.893 330.433 579.165 330.705 C 579.437 330.977 579.59 331.345 579.59 331.73 C 579.588 332.118 579.425 332.487 579.14 332.75 Z " fill="rgb(78,115,223)"/></g><g opacity="0.1"><path d=" M 320.28 324.75 L 274.91 246.16 C 274.65 245.717 274.174 245.445 273.66 245.445 C 273.146 245.445 272.67 245.717 272.41 246.16 L 233.21 314.01 C 238.11 320.204 243.61 325.898 249.63 331.01 L 256 331.01 C 256.801 331.01 257.45 331.659 257.45 332.46 C 257.439 333.256 256.796 333.899 256 333.91 L 253.31 333.91 C 256.614 336.392 260.131 338.577 263.82 340.44 L 263.82 337.01 C 263.82 336.626 263.973 336.259 264.245 335.988 C 264.518 335.718 264.886 335.567 265.27 335.57 L 282.06 335.57 C 282.855 335.57 283.5 336.215 283.5 337.01 L 283.5 345.11 C 283.5 345.32 283.545 345.528 283.63 345.72 C 283.866 346.235 284.383 346.564 284.95 346.56 L 302.61 346.56 C 303.064 346.563 303.493 346.347 303.76 345.98 C 303.949 345.729 304.051 345.424 304.05 345.11 L 304.05 328.37 C 304.05 327.569 304.699 326.92 305.5 326.92 L 319 326.92 C 319.523 326.934 320.013 326.663 320.279 326.212 C 320.545 325.761 320.546 325.201 320.28 324.75 L 320.28 324.75 Z  M 290.28 331.4 C 290.544 331.13 290.903 330.976 291.28 330.97 L 297.64 330.97 C 298.441 330.97 299.09 331.619 299.09 332.42 C 299.09 333.221 298.441 333.87 297.64 333.87 L 291.28 333.87 C 290.479 333.87 289.83 333.221 289.83 332.42 C 289.84 332.032 290.005 331.664 290.29 331.4 L 290.28 331.4 Z  M 261.78 302.32 C 261.396 302.32 261.029 302.167 260.758 301.895 C 260.488 301.622 260.337 301.254 260.34 300.87 L 260.34 289.87 C 260.337 289.486 260.488 289.118 260.758 288.845 C 261.029 288.573 261.396 288.42 261.78 288.42 L 285.52 288.42 C 286.317 288.425 286.96 289.073 286.96 289.87 L 286.96 300.87 C 286.96 301.667 286.317 302.315 285.52 302.32 L 261.78 302.32 Z " fill="rgb(78,115,223)"/></g><g opacity="0.1"><path d=" M 499.63 183.58 L 443.48 183.58 L 443.48 171.43 C 443.48 169.828 442.182 168.53 440.58 168.53 L 424.09 168.53 L 424.09 155.59 C 424.09 155.106 423.897 154.641 423.553 154.3 C 423.21 153.958 422.744 153.767 422.26 153.77 L 401 153.77 C 399.993 153.77 399.176 154.583 399.17 155.59 L 399.17 168.53 L 379.81 168.53 C 378.208 168.53 376.91 169.828 376.91 171.43 L 376.91 183.57 L 323.37 183.57 C 323.213 183.567 323.061 183.629 322.95 183.74 C 322.839 183.851 322.777 184.003 322.78 184.16 L 322.78 345.36 C 322.777 345.517 322.839 345.669 322.95 345.78 C 323.061 345.891 323.213 345.953 323.37 345.95 L 359 345.95 C 359.157 345.953 359.309 345.891 359.42 345.78 C 359.531 345.669 359.593 345.517 359.59 345.36 L 359.59 323.69 C 359.59 323.362 359.853 323.095 360.18 323.09 L 375.18 323.09 C 375.507 323.095 375.77 323.362 375.77 323.69 L 375.77 345.37 C 375.767 345.527 375.829 345.679 375.94 345.79 C 376.051 345.901 376.203 345.963 376.36 345.96 L 446.68 345.96 C 446.836 345.96 446.987 345.898 447.097 345.787 C 447.208 345.677 447.27 345.526 447.27 345.37 L 447.27 323.69 C 447.267 323.534 447.327 323.382 447.436 323.27 C 447.544 323.157 447.694 323.093 447.85 323.09 L 462.85 323.09 C 463.008 323.09 463.16 323.154 463.271 323.266 C 463.382 323.379 463.443 323.532 463.44 323.69 L 463.44 345.37 C 463.44 345.526 463.502 345.677 463.613 345.787 C 463.723 345.898 463.874 345.96 464.03 345.96 L 499.62 345.96 C 499.776 345.96 499.927 345.898 500.037 345.787 C 500.148 345.677 500.21 345.526 500.21 345.37 L 500.21 184.17 C 500.21 183.848 499.952 183.585 499.63 183.58 L 499.63 183.58 Z  M 353.17 315.58 C 353.173 315.737 353.111 315.889 353 316 C 352.889 316.111 352.737 316.173 352.58 316.17 L 330.58 316.17 C 330.423 316.173 330.271 316.111 330.16 316 C 330.049 315.889 329.987 315.737 329.99 315.58 L 329.99 308.08 C 329.987 307.922 330.048 307.769 330.159 307.656 C 330.27 307.544 330.422 307.48 330.58 307.48 L 352.58 307.48 C 352.738 307.48 352.89 307.544 353.001 307.656 C 353.112 307.769 353.173 307.922 353.17 308.08 L 353.17 315.58 Z  M 353.17 296.19 C 353.17 296.516 352.906 296.78 352.58 296.78 L 330.58 296.78 C 330.254 296.78 329.99 296.516 329.99 296.19 L 329.99 288.68 C 329.99 288.354 330.254 288.09 330.58 288.09 L 352.58 288.09 C 352.906 288.09 353.17 288.354 353.17 288.68 L 353.17 296.19 Z  M 353.17 276.79 C 353.173 276.947 353.111 277.099 353 277.21 C 352.889 277.321 352.737 277.383 352.58 277.38 L 330.58 277.38 C 330.423 277.383 330.271 277.321 330.16 277.21 C 330.049 277.099 329.987 276.947 329.99 276.79 L 329.99 269.29 C 329.987 269.133 330.049 268.981 330.16 268.87 C 330.271 268.759 330.423 268.697 330.58 268.7 L 352.58 268.7 C 352.737 268.697 352.889 268.759 353 268.87 C 353.111 268.981 353.173 269.133 353.17 269.29 L 353.17 276.79 Z  M 353.17 257.4 C 353.173 257.557 353.111 257.709 353 257.82 C 352.889 257.931 352.737 257.993 352.58 257.99 L 330.58 257.99 C 330.423 257.993 330.271 257.931 330.16 257.82 C 330.049 257.709 329.987 257.557 329.99 257.4 L 329.99 249.9 C 329.987 249.743 330.049 249.591 330.16 249.48 C 330.271 249.369 330.423 249.307 330.58 249.31 L 352.58 249.31 C 352.737 249.307 352.889 249.369 353 249.48 C 353.111 249.591 353.173 249.743 353.17 249.9 L 353.17 257.4 Z  M 353.17 238.01 C 353.17 238.336 352.906 238.6 352.58 238.6 L 330.58 238.6 C 330.258 238.595 330 238.332 330 238.01 L 330 230.5 C 330 230.174 330.264 229.91 330.59 229.91 L 352.59 229.91 C 352.916 229.91 353.18 230.174 353.18 230.5 L 353.17 238.01 Z  M 353.17 218.61 C 353.173 218.767 353.111 218.919 353 219.03 C 352.889 219.141 352.737 219.203 352.58 219.2 L 330.58 219.2 C 330.423 219.203 330.271 219.141 330.16 219.03 C 330.049 218.919 329.987 218.767 329.99 218.61 L 329.99 211.11 C 329.987 210.953 330.049 210.801 330.16 210.69 C 330.271 210.579 330.423 210.517 330.58 210.52 L 352.58 210.52 C 352.737 210.517 352.889 210.579 353 210.69 C 353.111 210.801 353.173 210.953 353.17 211.11 L 353.17 218.61 Z  M 353.17 199.22 C 353.173 199.377 353.111 199.529 353 199.64 C 352.889 199.751 352.737 199.813 352.58 199.81 L 330.58 199.81 C 330.423 199.813 330.271 199.751 330.16 199.64 C 330.049 199.529 329.987 199.377 329.99 199.22 L 329.99 191.72 C 329.987 191.563 330.049 191.411 330.16 191.3 C 330.271 191.189 330.423 191.127 330.58 191.13 L 352.58 191.13 C 352.737 191.127 352.889 191.189 353 191.3 C 353.111 191.411 353.173 191.563 353.17 191.72 L 353.17 199.22 Z  M 405.27 315.58 C 405.273 315.737 405.211 315.889 405.1 316 C 404.989 316.111 404.837 316.173 404.68 316.17 L 382.68 316.17 C 382.523 316.173 382.371 316.111 382.26 316 C 382.149 315.889 382.087 315.737 382.09 315.58 L 382.09 308.08 C 382.087 307.922 382.148 307.769 382.259 307.656 C 382.37 307.544 382.522 307.48 382.68 307.48 L 404.68 307.48 C 404.838 307.48 404.99 307.544 405.101 307.656 C 405.212 307.769 405.273 307.922 405.27 308.08 L 405.27 315.58 Z  M 405.27 296.19 C 405.27 296.516 405.006 296.78 404.68 296.78 L 382.68 296.78 C 382.354 296.78 382.09 296.516 382.09 296.19 L 382.09 288.68 C 382.09 288.354 382.354 288.09 382.68 288.09 L 404.68 288.09 C 405.006 288.09 405.27 288.354 405.27 288.68 L 405.27 296.19 Z  M 405.27 276.79 C 405.273 276.947 405.211 277.099 405.1 277.21 C 404.989 277.321 404.837 277.383 404.68 277.38 L 382.68 277.38 C 382.523 277.383 382.371 277.321 382.26 277.21 C 382.149 277.099 382.087 276.947 382.09 276.79 L 382.09 269.29 C 382.087 269.133 382.149 268.981 382.26 268.87 C 382.371 268.759 382.523 268.697 382.68 268.7 L 404.68 268.7 C 404.837 268.697 404.989 268.759 405.1 268.87 C 405.211 268.981 405.273 269.133 405.27 269.29 L 405.27 276.79 Z  M 405.27 257.4 C 405.273 257.557 405.211 257.709 405.1 257.82 C 404.989 257.931 404.837 257.993 404.68 257.99 L 382.68 257.99 C 382.523 257.993 382.371 257.931 382.26 257.82 C 382.149 257.709 382.087 257.557 382.09 257.4 L 382.09 249.9 C 382.087 249.743 382.149 249.591 382.26 249.48 C 382.371 249.369 382.523 249.307 382.68 249.31 L 404.68 249.31 C 404.837 249.307 404.989 249.369 405.1 249.48 C 405.211 249.591 405.273 249.743 405.27 249.9 L 405.27 257.4 Z  M 405.27 238.01 C 405.27 238.336 405.006 238.6 404.68 238.6 L 382.68 238.6 C 382.354 238.6 382.09 238.336 382.09 238.01 L 382.09 230.5 C 382.09 230.174 382.354 229.91 382.68 229.91 L 404.68 229.91 C 405.006 229.91 405.27 230.174 405.27 230.5 L 405.27 238.01 Z  M 405.27 218.61 C 405.273 218.767 405.211 218.919 405.1 219.03 C 404.989 219.141 404.837 219.203 404.68 219.2 L 382.68 219.2 C 382.523 219.203 382.371 219.141 382.26 219.03 C 382.149 218.919 382.087 218.767 382.09 218.61 L 382.09 211.11 C 382.087 210.953 382.149 210.801 382.26 210.69 C 382.371 210.579 382.523 210.517 382.68 210.52 L 404.68 210.52 C 404.837 210.517 404.989 210.579 405.1 210.69 C 405.211 210.801 405.273 210.953 405.27 211.11 L 405.27 218.61 Z  M 405.27 199.22 C 405.273 199.377 405.211 199.529 405.1 199.64 C 404.989 199.751 404.837 199.813 404.68 199.81 L 382.68 199.81 C 382.523 199.813 382.371 199.751 382.26 199.64 C 382.149 199.529 382.087 199.377 382.09 199.22 L 382.09 191.72 C 382.087 191.563 382.149 191.411 382.26 191.3 C 382.371 191.189 382.523 191.127 382.68 191.13 L 404.68 191.13 C 404.837 191.127 404.989 191.189 405.1 191.3 C 405.211 191.411 405.273 191.563 405.27 191.72 L 405.27 199.22 Z  M 440.88 315.58 C 440.88 315.736 440.818 315.887 440.707 315.997 C 440.597 316.108 440.446 316.17 440.29 316.17 L 418.29 316.17 C 417.964 316.17 417.7 315.906 417.7 315.58 L 417.7 308.08 C 417.7 307.752 417.963 307.485 418.29 307.48 L 440.29 307.48 C 440.617 307.485 440.88 307.752 440.88 308.08 L 440.88 315.58 Z  M 440.88 296.19 C 440.875 296.514 440.614 296.775 440.29 296.78 L 418.29 296.78 C 417.966 296.775 417.705 296.514 417.7 296.19 L 417.7 288.68 C 417.705 288.356 417.966 288.095 418.29 288.09 L 440.29 288.09 C 440.614 288.095 440.875 288.356 440.88 288.68 L 440.88 296.19 Z  M 440.88 276.79 C 440.88 276.946 440.818 277.097 440.707 277.207 C 440.597 277.318 440.446 277.38 440.29 277.38 L 418.29 277.38 C 417.964 277.38 417.7 277.116 417.7 276.79 L 417.7 269.29 C 417.7 268.964 417.964 268.7 418.29 268.7 L 440.29 268.7 C 440.446 268.7 440.597 268.762 440.707 268.873 C 440.818 268.983 440.88 269.134 440.88 269.29 L 440.88 276.79 Z  M 440.88 257.4 C 440.88 257.556 440.818 257.707 440.707 257.817 C 440.597 257.928 440.446 257.99 440.29 257.99 L 418.29 257.99 C 417.964 257.99 417.7 257.726 417.7 257.4 L 417.7 249.9 C 417.7 249.574 417.964 249.31 418.29 249.31 L 440.29 249.31 C 440.446 249.31 440.597 249.372 440.707 249.483 C 440.818 249.593 440.88 249.744 440.88 249.9 L 440.88 257.4 Z  M 440.88 238.01 C 440.875 238.334 440.614 238.595 440.29 238.6 L 418.29 238.6 C 417.966 238.595 417.705 238.334 417.7 238.01 L 417.7 230.5 C 417.705 230.176 417.966 229.915 418.29 229.91 L 440.29 229.91 C 440.614 229.915 440.875 230.176 440.88 230.5 L 440.88 238.01 Z  M 440.88 218.61 C 440.88 218.766 440.818 218.917 440.707 219.027 C 440.597 219.138 440.446 219.2 440.29 219.2 L 418.29 219.2 C 417.964 219.2 417.7 218.936 417.7 218.61 L 417.7 211.11 C 417.7 210.784 417.964 210.52 418.29 210.52 L 440.29 210.52 C 440.446 210.52 440.597 210.582 440.707 210.693 C 440.818 210.803 440.88 210.954 440.88 211.11 L 440.88 218.61 Z  M 440.88 199.22 C 440.88 199.376 440.818 199.527 440.707 199.637 C 440.597 199.748 440.446 199.81 440.29 199.81 L 418.29 199.81 C 417.964 199.81 417.7 199.546 417.7 199.22 L 417.7 191.72 C 417.7 191.394 417.964 191.13 418.29 191.13 L 440.29 191.13 C 440.446 191.13 440.597 191.192 440.707 191.303 C 440.818 191.413 440.88 191.564 440.88 191.72 L 440.88 199.22 Z  M 493 315.56 C 493 315.716 492.938 315.867 492.827 315.977 C 492.717 316.088 492.566 316.15 492.41 316.15 L 470.41 316.15 C 470.253 316.153 470.101 316.091 469.99 315.98 C 469.879 315.869 469.817 315.717 469.82 315.56 L 469.82 308.06 C 469.817 307.902 469.878 307.749 469.989 307.636 C 470.1 307.524 470.252 307.46 470.41 307.46 L 492.41 307.46 C 492.737 307.465 493 307.732 493 308.06 L 493 315.56 Z  M 493 296.17 C 492.995 296.494 492.734 296.755 492.41 296.76 L 470.41 296.76 C 470.254 296.76 470.103 296.698 469.993 296.587 C 469.882 296.477 469.82 296.326 469.82 296.17 L 469.82 288.66 C 469.82 288.504 469.882 288.353 469.993 288.243 C 470.103 288.132 470.254 288.07 470.41 288.07 L 492.41 288.07 C 492.734 288.075 492.995 288.336 493 288.66 L 493 296.17 Z  M 493 276.77 C 493 276.926 492.938 277.077 492.827 277.187 C 492.717 277.298 492.566 277.36 492.41 277.36 L 470.41 277.36 C 470.253 277.363 470.101 277.301 469.99 277.19 C 469.879 277.079 469.817 276.927 469.82 276.77 L 469.82 269.27 C 469.817 269.113 469.879 268.961 469.99 268.85 C 470.101 268.739 470.253 268.677 470.41 268.68 L 492.41 268.68 C 492.566 268.68 492.717 268.742 492.827 268.853 C 492.938 268.963 493 269.114 493 269.27 L 493 276.77 Z  M 493 257.38 C 493 257.536 492.938 257.687 492.827 257.797 C 492.717 257.908 492.566 257.97 492.41 257.97 L 470.41 257.97 C 470.253 257.973 470.101 257.911 469.99 257.8 C 469.879 257.689 469.817 257.537 469.82 257.38 L 469.82 249.88 C 469.817 249.723 469.879 249.571 469.99 249.46 C 470.101 249.349 470.253 249.287 470.41 249.29 L 492.41 249.29 C 492.566 249.29 492.717 249.352 492.827 249.463 C 492.938 249.573 493 249.724 493 249.88 L 493 257.38 Z  M 493 238.01 C 492.995 238.334 492.734 238.595 492.41 238.6 L 470.41 238.6 C 470.254 238.6 470.103 238.538 469.993 238.427 C 469.882 238.317 469.82 238.166 469.82 238.01 L 469.82 230.5 C 469.82 230.344 469.882 230.193 469.993 230.083 C 470.103 229.972 470.254 229.91 470.41 229.91 L 492.41 229.91 C 492.734 229.915 492.995 230.176 493 230.5 L 493 238.01 Z  M 493 218.61 C 493 218.766 492.938 218.917 492.827 219.027 C 492.717 219.138 492.566 219.2 492.41 219.2 L 470.41 219.2 C 470.253 219.203 470.101 219.141 469.99 219.03 C 469.879 218.919 469.817 218.767 469.82 218.61 L 469.82 211.11 C 469.817 210.953 469.879 210.801 469.99 210.69 C 470.101 210.579 470.253 210.517 470.41 210.52 L 492.41 210.52 C 492.566 210.52 492.717 210.582 492.827 210.693 C 492.938 210.803 493 210.954 493 211.11 L 493 218.61 Z  M 493 199.22 C 493 199.376 492.938 199.527 492.827 199.637 C 492.717 199.748 492.566 199.81 492.41 199.81 L 470.41 199.81 C 470.253 199.813 470.101 199.751 469.99 199.64 C 469.879 199.529 469.817 199.377 469.82 199.22 L 469.82 191.72 C 469.817 191.563 469.879 191.411 469.99 191.3 C 470.101 191.189 470.253 191.127 470.41 191.13 L 492.41 191.13 C 492.566 191.13 492.717 191.192 492.827 191.303 C 492.938 191.413 493 191.564 493 191.72 L 493 199.22 Z " fill="rgb(78,115,223)"/></g><g opacity="0.1"><path d=" M 339.7 139.88 C 337.232 139.41 334.679 139.688 332.37 140.68 C 329.567 141.933 326.363 141.933 323.56 140.68 C 320.244 139.227 316.458 139.3 313.2 140.88 C 312.277 141.374 311.247 141.632 310.2 141.63 C 306 141.63 302.5 137.4 301.78 131.82 C 302.616 131.204 303.325 130.433 303.87 129.55 C 306.34 125.55 310.15 123.04 314.43 123.04 C 318.71 123.04 322.49 125.55 324.95 129.48 C 326.449 131.897 329.106 133.351 331.95 133.31 L 332.06 133.31 C 335.4 133.29 338.3 136.01 339.7 139.88 Z " fill="rgb(78,115,223)"/></g><g opacity="0.1"><path d=" M 352.5 122.36 L 345.71 126.67 L 349.83 119.17 C 348.663 118.243 347.221 117.729 345.73 117.71 L 345.62 117.71 C 345.148 117.717 344.676 117.684 344.21 117.61 L 341.91 119.06 L 342.91 117.27 C 341.29 116.698 339.89 115.631 338.91 114.22 L 334.79 116.83 L 337.39 112.1 C 335.174 109.237 331.789 107.523 328.17 107.43 C 323.88 107.43 320.07 109.98 317.6 113.95 C 316.117 116.376 313.441 117.813 310.6 117.71 L 310.37 117.71 C 305.65 117.71 301.81 123.07 301.81 129.71 C 301.81 136.35 305.65 141.71 310.37 141.71 C 311.415 141.709 312.444 141.455 313.37 140.97 C 316.625 139.381 320.416 139.308 323.73 140.77 C 326.536 142.01 329.734 142.01 332.54 140.77 C 335.829 139.339 339.577 139.409 342.81 140.96 C 343.734 141.448 344.765 141.699 345.81 141.69 C 350.53 141.69 354.37 136.33 354.37 129.69 C 354.373 127.128 353.73 124.607 352.5 122.36 L 352.5 122.36 Z " fill="rgb(78,115,223)"/></g><path d="M 525.26 102.97 L 857.2 102.97 C 868.128 102.97 877 111.842 877 122.77 L 877 530.59 C 877 541.518 868.128 550.39 857.2 550.39 L 525.26 550.39 C 514.332 550.39 505.46 541.518 505.46 530.59 L 505.46 122.77 C 505.46 111.842 514.332 102.97 525.26 102.97 Z" style="stroke:none;fill:#6C4815;stroke-miterlimit:10;"/><rect x="522" y="148.11" width="336" height="357.15" transform="matrix(1,0,0,1,0,0)" fill="rgb(255,255,255)"/><circle vector-effect="non-scaling-stroke" cx="691.23" cy="528.8" r="13.080000000000041" fill="rgb(255,255,255)"/><path d=" M 691.23 135.18 C 687.916 135.18 685.23 132.494 685.23 129.18 C 685.23 125.866 687.916 123.18 691.23 123.18 C 694.544 123.18 697.23 125.866 697.23 129.18 C 697.23 132.494 694.544 135.18 691.23 135.18 Z " fill="rgb(255,255,255)"/><path d=" M 691.23 123.59 C 693.476 123.586 695.502 124.936 696.365 127.009 C 697.227 129.083 696.754 131.472 695.168 133.061 C 693.581 134.65 691.194 135.127 689.118 134.268 C 687.043 133.41 685.69 131.386 685.69 129.14 C 685.69 126.079 688.169 123.596 691.23 123.59 M 691.23 122.59 C 688.58 122.586 686.188 124.179 685.171 126.626 C 684.154 129.074 684.712 131.893 686.585 133.768 C 688.457 135.643 691.275 136.206 693.724 135.192 C 696.173 134.179 697.77 131.79 697.77 129.14 C 697.773 127.404 697.085 125.738 695.858 124.509 C 694.631 123.28 692.966 122.59 691.23 122.59 L 691.23 122.59 Z " fill="rgb(255,255,255)"/><g opacity="0.1"><path d=" M 824.2 333.31 C 824.2 333.31 824.2 333.23 824.2 333.19 C 824.066 330.31 823.544 327.461 822.65 324.72 L 822.5 324.26 C 820.219 317.65 815.867 311.951 810.09 308.01 C 796.698 298.878 778.607 301.113 767.84 313.23 C 767.284 310.152 766.423 307.137 765.27 304.23 C 756.787 305.321 748.223 305.656 739.68 305.23 C 744.915 307.607 750.341 309.541 755.9 311.01 L 755.7 311.75 C 749.46 310.074 743.39 307.817 737.57 305.01 L 735.81 304.16 L 737.81 304.29 C 746.888 304.887 756.001 304.626 765.03 303.51 C 763.078 298.857 760.376 294.557 757.03 290.78 C 742.39 289.3 727.86 286.23 714.31 280.14 L 714.62 279.44 C 727.82 285.38 741.97 288.44 756.25 289.93 C 746.45 279.423 732.28 274.135 717.993 275.653 C 703.705 277.171 690.963 285.318 683.59 297.65 C 682.237 284.527 676.782 272.165 668 262.32 C 660.189 265.435 652.127 267.877 643.9 269.62 C 631.523 272.25 618.857 273.258 606.22 272.62 C 611.452 275.035 616.878 277.005 622.44 278.51 L 622.24 279.24 C 615.997 277.556 609.926 275.286 604.11 272.46 L 602.35 271.61 L 604.35 271.74 C 625.886 273.158 647.466 269.742 667.51 261.74 C 666.76 260.91 665.98 260.11 665.18 259.32 C 640.18 259.82 612.89 259.58 588.18 250.59 C 569.583 262.062 558.269 282.36 558.29 304.21 C 558.29 316.02 561.54 332.27 567.19 348.57 C 569.686 355.861 572.628 362.991 576 369.92 C 577.72 373.43 579.55 376.84 581.48 380.1 L 581.48 380.1 C 583.803 384.067 586.357 387.894 589.13 391.56 C 589.63 392.21 590.13 392.86 590.65 393.49 C 593.497 397.086 596.693 400.392 600.19 403.36 L 600.19 403.36 C 600.9 403.95 601.61 404.51 602.33 405.04 C 604.249 406.49 606.294 407.765 608.44 408.85 C 612.02 410.725 615.964 411.803 620 412.01 C 620.31 412.01 620.63 412.01 620.95 412.01 L 620.95 412.14 L 791.81 412.14 L 791.81 412.01 L 791.93 412.01 C 792.915 412.004 793.892 411.831 794.82 411.5 C 800.82 409.35 806.43 400.74 811.05 389.86 C 812.05 387.45 813.05 384.93 813.99 382.34 C 814.81 380.05 815.58 377.71 816.32 375.34 C 818.465 368.435 820.261 361.426 821.7 354.34 C 823.127 347.902 823.974 341.349 824.23 334.76 C 824.23 334.28 824.22 333.8 824.2 333.31 Z " fill="rgb(78,115,223)"/></g><g opacity="0.1"><path d=" M 664.31 258.55 C 643.948 239.159 613.168 235.689 589 250.06 C 613.11 258.71 639.76 259.01 664.31 258.55 Z " fill="rgb(78,115,223)"/></g><g opacity="0.1"><path d=" M 804.3 399.01 L 777.93 353.32 C 777.781 353.058 777.502 352.896 777.2 352.896 C 776.898 352.896 776.619 353.058 776.47 353.32 L 750.09 399.01 C 749.94 399.27 749.94 399.591 750.091 399.851 C 750.241 400.111 750.519 400.271 750.82 400.27 L 758.69 400.27 C 759.152 400.275 759.525 400.648 759.53 401.11 L 759.53 410.87 C 759.535 411.332 759.908 411.705 760.37 411.71 L 770.64 411.71 C 771.102 411.705 771.475 411.332 771.48 410.87 L 771.48 406.16 C 771.477 405.936 771.565 405.721 771.723 405.563 C 771.881 405.405 772.096 405.317 772.32 405.32 L 782.08 405.32 C 782.303 405.32 782.516 405.408 782.674 405.566 C 782.832 405.724 782.92 405.937 782.92 406.16 L 782.92 410.87 C 782.925 411.332 783.298 411.705 783.76 411.71 L 794 411.71 C 794.362 411.712 794.684 411.482 794.8 411.14 C 794.814 411.051 794.814 410.959 794.8 410.87 L 794.8 401.11 C 794.8 400.887 794.888 400.674 795.046 400.516 C 795.204 400.358 795.417 400.27 795.64 400.27 L 803.51 400.27 C 803.821 400.294 804.12 400.143 804.286 399.879 C 804.451 399.614 804.457 399.28 804.3 399.01 Z  M 767.53 404.01 C 767.37 404.169 767.155 404.258 766.93 404.26 L 763.23 404.26 C 762.768 404.255 762.395 403.882 762.39 403.42 C 762.386 403.194 762.477 402.976 762.64 402.82 C 762.796 402.662 763.008 402.572 763.23 402.57 L 766.93 402.57 C 767.155 402.57 767.372 402.66 767.531 402.819 C 767.69 402.978 767.78 403.195 767.78 403.42 C 767.778 403.642 767.688 403.854 767.53 404.01 Z  M 791.76 404.01 C 791.6 404.169 791.385 404.258 791.16 404.26 L 787.46 404.26 C 787.029 404.213 786.702 403.849 786.702 403.415 C 786.702 402.981 787.029 402.617 787.46 402.57 L 791.16 402.57 C 791.385 402.57 791.602 402.66 791.761 402.819 C 791.92 402.978 792.01 403.195 792.01 403.42 C 792.008 403.642 791.918 403.854 791.76 404.01 Z " fill="rgb(78,115,223)"/></g><g opacity="0.1"><path d=" M 641.27 399.38 L 614.9 353.69 C 614.751 353.428 614.472 353.266 614.17 353.266 C 613.868 353.266 613.589 353.428 613.44 353.69 L 590.66 393.15 C 593.507 396.743 596.702 400.046 600.2 403.01 L 603.9 403.01 C 604.239 403.009 604.545 403.212 604.677 403.525 C 604.808 403.838 604.738 404.199 604.5 404.44 C 604.344 404.603 604.126 404.694 603.9 404.69 L 602.34 404.69 C 604.261 406.133 606.306 407.405 608.45 408.49 L 608.45 406.49 C 608.45 406.267 608.538 406.054 608.696 405.896 C 608.854 405.738 609.067 405.65 609.29 405.65 L 619.05 405.65 C 619.512 405.655 619.885 406.028 619.89 406.49 L 619.89 411.2 C 619.889 411.321 619.916 411.441 619.97 411.55 C 620.104 411.849 620.402 412.041 620.73 412.04 L 631 412.04 C 631.264 412.038 631.513 411.912 631.67 411.7 C 631.778 411.555 631.837 411.38 631.84 411.2 L 631.84 401.44 C 631.84 401.217 631.928 401.004 632.086 400.846 C 632.244 400.688 632.457 400.6 632.68 400.6 L 640.55 400.6 C 640.837 400.59 641.099 400.435 641.245 400.187 C 641.39 399.94 641.4 399.636 641.27 399.38 L 641.27 399.38 Z  M 623.84 403.24 C 623.997 403.085 624.209 402.998 624.43 403 L 628.14 403 C 628.482 402.993 628.793 403.197 628.924 403.513 C 629.054 403.83 628.977 404.194 628.73 404.43 C 628.577 404.592 628.363 404.683 628.14 404.68 L 624.43 404.68 C 623.968 404.675 623.595 404.302 623.59 403.84 C 623.592 403.615 623.681 403.4 623.84 403.24 Z  M 607.27 386.34 C 607.045 386.34 606.83 386.25 606.672 386.09 C 606.515 385.931 606.427 385.715 606.43 385.49 L 606.43 379.1 C 606.43 378.877 606.518 378.664 606.676 378.506 C 606.834 378.348 607.047 378.26 607.27 378.26 L 621.07 378.26 C 621.532 378.265 621.905 378.638 621.91 379.1 L 621.91 385.49 C 621.91 385.956 621.536 386.335 621.07 386.34 L 607.27 386.34 Z " fill="rgb(78,115,223)"/></g><g opacity="0.1"><path d=" M 745.53 317.31 L 712.89 317.31 L 712.89 310.26 C 712.89 309.812 712.712 309.382 712.395 309.065 C 712.078 308.748 711.648 308.57 711.2 308.57 L 701.62 308.57 L 701.62 301.01 C 701.62 300.425 701.145 299.95 700.56 299.95 L 688.21 299.95 C 687.928 299.947 687.657 300.058 687.457 300.257 C 687.258 300.457 687.147 300.728 687.15 301.01 L 687.15 308.53 L 675.88 308.53 C 675.432 308.53 675.002 308.708 674.685 309.025 C 674.368 309.342 674.19 309.772 674.19 310.22 L 674.19 317.27 L 643.07 317.27 C 642.881 317.27 642.725 317.421 642.72 317.61 L 642.72 411.33 C 642.725 411.519 642.881 411.67 643.07 411.67 L 663.75 411.67 C 663.84 411.67 663.927 411.634 663.99 411.57 C 664.054 411.507 664.09 411.42 664.09 411.33 L 664.09 398.76 C 664.095 398.571 664.251 398.42 664.44 398.42 L 673.17 398.42 C 673.359 398.42 673.515 398.571 673.52 398.76 L 673.52 411.37 C 673.52 411.46 673.556 411.547 673.62 411.61 C 673.683 411.674 673.77 411.71 673.86 411.71 L 714.74 411.71 C 714.83 411.71 714.917 411.674 714.98 411.61 C 715.044 411.547 715.08 411.46 715.08 411.37 L 715.08 398.76 C 715.08 398.67 715.116 398.583 715.18 398.52 C 715.243 398.456 715.33 398.42 715.42 398.42 L 724.16 398.42 C 724.25 398.42 724.337 398.456 724.4 398.52 C 724.464 398.583 724.5 398.67 724.5 398.76 L 724.5 411.37 C 724.505 411.559 724.661 411.71 724.85 411.71 L 745.53 411.71 C 745.62 411.71 745.707 411.674 745.77 411.61 C 745.834 411.547 745.87 411.46 745.87 411.37 L 745.87 317.65 C 745.87 317.56 745.834 317.473 745.77 317.41 C 745.707 317.346 745.62 317.31 745.53 317.31 L 745.53 317.31 Z  M 660.39 394.01 C 660.39 394.1 660.354 394.187 660.29 394.25 C 660.227 394.314 660.14 394.35 660.05 394.35 L 647.27 394.35 C 647.18 394.35 647.093 394.314 647.03 394.25 C 646.966 394.187 646.93 394.1 646.93 394.01 L 646.93 389.64 C 646.93 389.55 646.966 389.463 647.03 389.4 C 647.093 389.336 647.18 389.3 647.27 389.3 L 660.05 389.3 C 660.14 389.3 660.227 389.336 660.29 389.4 C 660.354 389.463 660.39 389.55 660.39 389.64 L 660.39 394.01 Z  M 660.39 382.73 C 660.39 382.82 660.354 382.907 660.29 382.97 C 660.227 383.034 660.14 383.07 660.05 383.07 L 647.27 383.07 C 647.18 383.07 647.093 383.034 647.03 382.97 C 646.966 382.907 646.93 382.82 646.93 382.73 L 646.93 378.37 C 646.93 378.28 646.966 378.193 647.03 378.13 C 647.093 378.066 647.18 378.03 647.27 378.03 L 660.05 378.03 C 660.14 378.03 660.227 378.066 660.29 378.13 C 660.354 378.193 660.39 378.28 660.39 378.37 L 660.39 382.73 Z  M 660.39 371.46 C 660.39 371.55 660.354 371.637 660.29 371.7 C 660.227 371.764 660.14 371.8 660.05 371.8 L 647.27 371.8 C 647.18 371.8 647.093 371.764 647.03 371.7 C 646.966 371.637 646.93 371.55 646.93 371.46 L 646.93 367.09 C 646.93 367 646.966 366.913 647.03 366.85 C 647.093 366.786 647.18 366.75 647.27 366.75 L 660.05 366.75 C 660.14 366.75 660.227 366.786 660.29 366.85 C 660.354 366.913 660.39 367 660.39 367.09 L 660.39 371.46 Z  M 660.39 360.18 C 660.39 360.369 660.239 360.525 660.05 360.53 L 647.27 360.53 C 647.081 360.525 646.93 360.369 646.93 360.18 L 646.93 355.82 C 646.93 355.73 646.966 355.643 647.03 355.58 C 647.093 355.516 647.18 355.48 647.27 355.48 L 660.05 355.48 C 660.14 355.48 660.227 355.516 660.29 355.58 C 660.354 355.643 660.39 355.73 660.39 355.82 L 660.39 360.18 Z  M 660.39 348.91 C 660.39 349 660.354 349.087 660.29 349.15 C 660.227 349.214 660.14 349.25 660.05 349.25 L 647.27 349.25 C 647.18 349.25 647.093 349.214 647.03 349.15 C 646.966 349.087 646.93 349 646.93 348.91 L 646.93 344.54 C 646.93 344.45 646.966 344.363 647.03 344.3 C 647.093 344.236 647.18 344.2 647.27 344.2 L 660.05 344.2 C 660.14 344.2 660.227 344.236 660.29 344.3 C 660.354 344.363 660.39 344.45 660.39 344.54 L 660.39 348.91 Z  M 660.39 337.64 C 660.39 337.73 660.354 337.817 660.29 337.88 C 660.227 337.944 660.14 337.98 660.05 337.98 L 647.27 337.98 C 647.18 337.98 647.093 337.944 647.03 337.88 C 646.966 337.817 646.93 337.73 646.93 337.64 L 646.93 333.27 C 646.93 333.18 646.966 333.093 647.03 333.03 C 647.093 332.966 647.18 332.93 647.27 332.93 L 660.05 332.93 C 660.14 332.93 660.227 332.966 660.29 333.03 C 660.354 333.093 660.39 333.18 660.39 333.27 L 660.39 337.64 Z  M 660.39 326.36 C 660.39 326.45 660.354 326.537 660.29 326.6 C 660.227 326.664 660.14 326.7 660.05 326.7 L 647.27 326.7 C 647.18 326.7 647.093 326.664 647.03 326.6 C 646.966 326.537 646.93 326.45 646.93 326.36 L 646.93 322.01 C 646.93 321.92 646.966 321.833 647.03 321.77 C 647.093 321.706 647.18 321.67 647.27 321.67 L 660.05 321.67 C 660.14 321.67 660.227 321.706 660.29 321.77 C 660.354 321.833 660.39 321.92 660.39 322.01 L 660.39 326.36 Z  M 690.68 394.01 C 690.68 394.1 690.644 394.187 690.58 394.25 C 690.517 394.314 690.43 394.35 690.34 394.35 L 677.56 394.35 C 677.47 394.35 677.383 394.314 677.32 394.25 C 677.256 394.187 677.22 394.1 677.22 394.01 L 677.22 389.64 C 677.22 389.55 677.256 389.463 677.32 389.4 C 677.383 389.336 677.47 389.3 677.56 389.3 L 690.34 389.3 C 690.43 389.3 690.517 389.336 690.58 389.4 C 690.644 389.463 690.68 389.55 690.68 389.64 L 690.68 394.01 Z  M 690.68 382.73 C 690.68 382.82 690.644 382.907 690.58 382.97 C 690.517 383.034 690.43 383.07 690.34 383.07 L 677.56 383.07 C 677.47 383.07 677.383 383.034 677.32 382.97 C 677.256 382.907 677.22 382.82 677.22 382.73 L 677.22 378.37 C 677.22 378.28 677.256 378.193 677.32 378.13 C 677.383 378.066 677.47 378.03 677.56 378.03 L 690.34 378.03 C 690.43 378.03 690.517 378.066 690.58 378.13 C 690.644 378.193 690.68 378.28 690.68 378.37 L 690.68 382.73 Z  M 690.68 371.46 C 690.68 371.55 690.644 371.637 690.58 371.7 C 690.517 371.764 690.43 371.8 690.34 371.8 L 677.56 371.8 C 677.47 371.8 677.383 371.764 677.32 371.7 C 677.256 371.637 677.22 371.55 677.22 371.46 L 677.22 367.09 C 677.22 367 677.256 366.913 677.32 366.85 C 677.383 366.786 677.47 366.75 677.56 366.75 L 690.34 366.75 C 690.43 366.75 690.517 366.786 690.58 366.85 C 690.644 366.913 690.68 367 690.68 367.09 L 690.68 371.46 Z  M 690.68 360.18 C 690.68 360.369 690.529 360.525 690.34 360.53 L 677.56 360.53 C 677.371 360.525 677.22 360.369 677.22 360.18 L 677.22 355.82 C 677.22 355.73 677.256 355.643 677.32 355.58 C 677.383 355.516 677.47 355.48 677.56 355.48 L 690.34 355.48 C 690.43 355.48 690.517 355.516 690.58 355.58 C 690.644 355.643 690.68 355.73 690.68 355.82 L 690.68 360.18 Z  M 690.68 348.91 C 690.68 349 690.644 349.087 690.58 349.15 C 690.517 349.214 690.43 349.25 690.34 349.25 L 677.56 349.25 C 677.47 349.25 677.383 349.214 677.32 349.15 C 677.256 349.087 677.22 349 677.22 348.91 L 677.22 344.54 C 677.22 344.45 677.256 344.363 677.32 344.3 C 677.383 344.236 677.47 344.2 677.56 344.2 L 690.34 344.2 C 690.43 344.2 690.517 344.236 690.58 344.3 C 690.644 344.363 690.68 344.45 690.68 344.54 L 690.68 348.91 Z  M 690.68 337.64 C 690.68 337.73 690.644 337.817 690.58 337.88 C 690.517 337.944 690.43 337.98 690.34 337.98 L 677.56 337.98 C 677.47 337.98 677.383 337.944 677.32 337.88 C 677.256 337.817 677.22 337.73 677.22 337.64 L 677.22 333.27 C 677.22 333.18 677.256 333.093 677.32 333.03 C 677.383 332.966 677.47 332.93 677.56 332.93 L 690.34 332.93 C 690.43 332.93 690.517 332.966 690.58 333.03 C 690.644 333.093 690.68 333.18 690.68 333.27 L 690.68 337.64 Z  M 690.68 326.36 C 690.68 326.45 690.644 326.537 690.58 326.6 C 690.517 326.664 690.43 326.7 690.34 326.7 L 677.56 326.7 C 677.47 326.7 677.383 326.664 677.32 326.6 C 677.256 326.537 677.22 326.45 677.22 326.36 L 677.22 322.01 C 677.22 321.92 677.256 321.833 677.32 321.77 C 677.383 321.706 677.47 321.67 677.56 321.67 L 690.34 321.67 C 690.43 321.67 690.517 321.706 690.58 321.77 C 690.644 321.833 690.68 321.92 690.68 322.01 L 690.68 326.36 Z  M 711.38 394.01 C 711.38 394.1 711.344 394.187 711.28 394.25 C 711.217 394.314 711.13 394.35 711.04 394.35 L 698.26 394.35 C 698.17 394.35 698.083 394.314 698.02 394.25 C 697.956 394.187 697.92 394.1 697.92 394.01 L 697.92 389.64 C 697.92 389.55 697.956 389.463 698.02 389.4 C 698.083 389.336 698.17 389.3 698.26 389.3 L 711 389.3 C 711.09 389.3 711.177 389.336 711.24 389.4 C 711.304 389.463 711.34 389.55 711.34 389.64 L 711.38 394.01 Z  M 711.38 382.73 C 711.38 382.82 711.344 382.907 711.28 382.97 C 711.217 383.034 711.13 383.07 711.04 383.07 L 698.26 383.07 C 698.17 383.07 698.083 383.034 698.02 382.97 C 697.956 382.907 697.92 382.82 697.92 382.73 L 697.92 378.37 C 697.92 378.28 697.956 378.193 698.02 378.13 C 698.083 378.066 698.17 378.03 698.26 378.03 L 711 378.03 C 711.09 378.03 711.177 378.066 711.24 378.13 C 711.304 378.193 711.34 378.28 711.34 378.37 L 711.38 382.73 Z  M 711.38 371.46 C 711.38 371.55 711.344 371.637 711.28 371.7 C 711.217 371.764 711.13 371.8 711.04 371.8 L 698.26 371.8 C 698.17 371.8 698.083 371.764 698.02 371.7 C 697.956 371.637 697.92 371.55 697.92 371.46 L 697.92 367.09 C 697.92 367 697.956 366.913 698.02 366.85 C 698.083 366.786 698.17 366.75 698.26 366.75 L 711 366.75 C 711.09 366.75 711.177 366.786 711.24 366.85 C 711.304 366.913 711.34 367 711.34 367.09 L 711.38 371.46 Z  M 711.38 360.18 C 711.38 360.369 711.229 360.525 711.04 360.53 L 698.26 360.53 C 698.071 360.525 697.92 360.369 697.92 360.18 L 697.92 355.82 C 697.92 355.73 697.956 355.643 698.02 355.58 C 698.083 355.516 698.17 355.48 698.26 355.48 L 711 355.48 C 711.09 355.48 711.177 355.516 711.24 355.58 C 711.304 355.643 711.34 355.73 711.34 355.82 L 711.38 360.18 Z  M 711.38 348.91 C 711.38 349 711.344 349.087 711.28 349.15 C 711.217 349.214 711.13 349.25 711.04 349.25 L 698.26 349.25 C 698.17 349.25 698.083 349.214 698.02 349.15 C 697.956 349.087 697.92 349 697.92 348.91 L 697.92 344.54 C 697.92 344.45 697.956 344.363 698.02 344.3 C 698.083 344.236 698.17 344.2 698.26 344.2 L 711 344.2 C 711.09 344.2 711.177 344.236 711.24 344.3 C 711.304 344.363 711.34 344.45 711.34 344.54 L 711.38 348.91 Z  M 711.38 337.64 C 711.38 337.73 711.344 337.817 711.28 337.88 C 711.217 337.944 711.13 337.98 711.04 337.98 L 698.26 337.98 C 698.17 337.98 698.083 337.944 698.02 337.88 C 697.956 337.817 697.92 337.73 697.92 337.64 L 697.92 333.27 C 697.92 333.18 697.956 333.093 698.02 333.03 C 698.083 332.966 698.17 332.93 698.26 332.93 L 711 332.93 C 711.09 332.93 711.177 332.966 711.24 333.03 C 711.304 333.093 711.34 333.18 711.34 333.27 L 711.38 337.64 Z  M 711.38 326.36 C 711.38 326.45 711.344 326.537 711.28 326.6 C 711.217 326.664 711.13 326.7 711.04 326.7 L 698.26 326.7 C 698.17 326.7 698.083 326.664 698.02 326.6 C 697.956 326.537 697.92 326.45 697.92 326.36 L 697.92 322.01 C 697.92 321.92 697.956 321.833 698.02 321.77 C 698.083 321.706 698.17 321.67 698.26 321.67 L 711 321.67 C 711.09 321.67 711.177 321.706 711.24 321.77 C 711.304 321.833 711.34 321.92 711.34 322.01 L 711.38 326.36 Z  M 741.67 394.01 C 741.665 394.196 741.516 394.345 741.33 394.35 L 728.55 394.35 C 728.46 394.35 728.373 394.314 728.31 394.25 C 728.246 394.187 728.21 394.1 728.21 394.01 L 728.21 389.64 C 728.21 389.55 728.246 389.463 728.31 389.4 C 728.373 389.336 728.46 389.3 728.55 389.3 L 741.33 389.3 C 741.42 389.3 741.507 389.336 741.57 389.4 C 741.634 389.463 741.67 389.55 741.67 389.64 L 741.67 394.01 Z  M 741.67 382.73 C 741.67 382.82 741.634 382.907 741.57 382.97 C 741.507 383.034 741.42 383.07 741.33 383.07 L 728.55 383.07 C 728.46 383.07 728.373 383.034 728.31 382.97 C 728.246 382.907 728.21 382.82 728.21 382.73 L 728.21 378.37 C 728.21 378.28 728.246 378.193 728.31 378.13 C 728.373 378.066 728.46 378.03 728.55 378.03 L 741.33 378.03 C 741.42 378.03 741.507 378.066 741.57 378.13 C 741.634 378.193 741.67 378.28 741.67 378.37 L 741.67 382.73 Z  M 741.67 371.46 C 741.67 371.55 741.634 371.637 741.57 371.7 C 741.507 371.764 741.42 371.8 741.33 371.8 L 728.55 371.8 C 728.46 371.8 728.373 371.764 728.31 371.7 C 728.246 371.637 728.21 371.55 728.21 371.46 L 728.21 367.09 C 728.21 367 728.246 366.913 728.31 366.85 C 728.373 366.786 728.46 366.75 728.55 366.75 L 741.33 366.75 C 741.516 366.755 741.665 366.904 741.67 367.09 L 741.67 371.46 Z  M 741.67 360.18 C 741.67 360.369 741.519 360.525 741.33 360.53 L 728.55 360.53 C 728.361 360.525 728.21 360.369 728.21 360.18 L 728.21 355.82 C 728.21 355.73 728.246 355.643 728.31 355.58 C 728.373 355.516 728.46 355.48 728.55 355.48 L 741.33 355.48 C 741.42 355.48 741.507 355.516 741.57 355.58 C 741.634 355.643 741.67 355.73 741.67 355.82 L 741.67 360.18 Z  M 741.67 348.91 C 741.67 349 741.634 349.087 741.57 349.15 C 741.507 349.214 741.42 349.25 741.33 349.25 L 728.55 349.25 C 728.46 349.25 728.373 349.214 728.31 349.15 C 728.246 349.087 728.21 349 728.21 348.91 L 728.21 344.54 C 728.21 344.45 728.246 344.363 728.31 344.3 C 728.373 344.236 728.46 344.2 728.55 344.2 L 741.33 344.2 C 741.516 344.205 741.665 344.354 741.67 344.54 L 741.67 348.91 Z  M 741.67 337.64 C 741.665 337.826 741.516 337.975 741.33 337.98 L 728.55 337.98 C 728.46 337.98 728.373 337.944 728.31 337.88 C 728.246 337.817 728.21 337.73 728.21 337.64 L 728.21 333.27 C 728.21 333.18 728.246 333.093 728.31 333.03 C 728.373 332.966 728.46 332.93 728.55 332.93 L 741.33 332.93 C 741.42 332.93 741.507 332.966 741.57 333.03 C 741.634 333.093 741.67 333.18 741.67 333.27 L 741.67 337.64 Z  M 741.67 326.36 C 741.67 326.45 741.634 326.537 741.57 326.6 C 741.507 326.664 741.42 326.7 741.33 326.7 L 728.55 326.7 C 728.46 326.7 728.373 326.664 728.31 326.6 C 728.246 326.537 728.21 326.45 728.21 326.36 L 728.21 322.01 C 728.21 321.92 728.246 321.833 728.31 321.77 C 728.373 321.706 728.46 321.67 728.55 321.67 L 741.33 321.67 C 741.42 321.67 741.507 321.706 741.57 321.77 C 741.634 321.833 741.67 321.92 741.67 322.01 L 741.67 326.36 Z " fill="rgb(78,115,223)"/></g><g opacity="0.1"><path d=" M 652.56 291.91 C 651.126 291.639 649.643 291.799 648.3 292.37 C 647.497 292.725 646.628 292.909 645.75 292.91 C 644.864 292.911 643.988 292.724 643.18 292.36 C 641.258 291.522 639.067 291.566 637.18 292.48 C 636.647 292.761 636.053 292.909 635.45 292.91 C 633.01 292.91 630.98 290.45 630.56 287.21 C 631.046 286.85 631.46 286.403 631.78 285.89 C 632.946 283.578 635.315 282.119 637.905 282.119 C 640.495 282.119 642.864 283.578 644.03 285.89 C 644.884 287.279 646.399 288.124 648.03 288.12 L 648.1 288.12 C 650.06 288.08 651.74 289.63 652.56 291.91 Z " fill="rgb(78,115,223)"/></g><g opacity="0.1"><path d=" M 660 281.72 L 656 284.23 L 658.4 279.87 C 657.72 279.33 656.879 279.031 656.01 279.02 L 656 279.02 C 655.726 279.02 655.451 279 655.18 278.96 L 653.84 279.8 L 654.42 278.8 C 653.472 278.474 652.652 277.854 652.08 277.03 L 649.68 278.54 L 651.2 275.79 C 649.909 274.124 647.937 273.129 645.83 273.08 C 643.261 273.183 640.933 274.62 639.69 276.87 C 638.827 278.275 637.278 279.11 635.63 279.06 L 635.5 279.06 C 632.75 279.06 630.5 282.17 630.5 286.06 C 630.5 289.95 632.73 293.06 635.5 293.06 C 636.104 293.056 636.697 292.905 637.23 292.62 C 639.118 291.709 641.31 291.669 643.23 292.51 C 644.039 292.869 644.915 293.056 645.8 293.06 C 646.678 293.059 647.547 292.875 648.35 292.52 C 650.27 291.68 652.462 291.721 654.35 292.63 C 654.876 292.911 655.463 293.059 656.06 293.06 C 658.81 293.06 661.06 289.94 661.06 286.06 C 661.083 284.547 660.718 283.052 660 281.72 L 660 281.72 Z " fill="rgb(78,115,223)"/></g><path d="M 990.93 269.17 L 991.71 269.17 C 992.974 269.17 994 270.196 994 271.46 L 994 311.05 C 994 312.314 992.974 313.34 991.71 313.34 L 990.93 313.34 C 989.666 313.34 988.64 312.314 988.64 311.05 L 988.64 271.46 C 988.64 270.196 989.666 269.17 990.93 269.17 Z" style="stroke:none;fill:#3F3D56;stroke-miterlimit:10;"/><path d="M 812.05 234.57 L 812.06 234.57 C 812.888 234.57 813.56 235.242 813.56 236.07 L 813.56 247.61 C 813.56 248.438 812.888 249.11 812.06 249.11 L 812.05 249.11 C 811.222 249.11 810.55 248.438 810.55 247.61 L 810.55 236.07 C 810.55 235.242 811.222 234.57 812.05 234.57 Z" style="stroke:none;fill:#3F3D56;stroke-miterlimit:10;"/><path d="M 812.13 261.19 L 812.14 261.19 C 813.073 261.19 813.83 261.947 813.83 262.88 L 813.83 284.81 C 813.83 285.743 813.073 286.5 812.14 286.5 L 812.13 286.5 C 811.197 286.5 810.44 285.743 810.44 284.81 L 810.44 262.88 C 810.44 261.947 811.197 261.19 812.13 261.19 Z" style="stroke:none;fill:#3F3D56;stroke-miterlimit:10;"/><path d="M 812.1 295.35 L 812.11 295.35 C 812.999 295.35 813.72 296.071 813.72 296.96 L 813.72 319.27 C 813.72 320.159 812.999 320.88 812.11 320.88 L 812.1 320.88 C 811.211 320.88 810.49 320.159 810.49 319.27 L 810.49 296.96 C 810.49 296.071 811.211 295.35 812.1 295.35 Z" style="stroke:none;fill:#3F3D56;stroke-miterlimit:10;"/><path d="M 830.79 186.51 L 973 186.51 C 983.233 186.51 991.54 194.817 991.54 205.05 L 991.54 532.34 C 991.54 542.573 983.233 550.88 973 550.88 L 830.79 550.88 C 820.557 550.88 812.25 542.573 812.25 532.34 L 812.25 205.05 C 812.25 194.817 820.557 186.51 830.79 186.51 Z" style="stroke:none;fill:#6C4815;stroke-miterlimit:10;"/><path d="M 887.14 197.39 L 907.1 197.39 C 908.502 197.39 909.64 198.528 909.64 199.93 L 909.64 199.93 C 909.64 201.332 908.502 202.47 907.1 202.47 L 887.14 202.47 C 885.738 202.47 884.6 201.332 884.6 199.93 L 884.6 199.93 C 884.6 198.528 885.738 197.39 887.14 197.39 Z" style="stroke:none;fill:#E6E8EC;stroke-miterlimit:10;"/><circle vector-effect="non-scaling-stroke" cx="916.3" cy="199.94" r="2.8799999999999955" fill="rgb(230,232,236)"/><path d=" M 966.22 196.01 L 945.7 196.01 L 945.7 198.48 C 945.695 204.943 940.463 210.183 934 210.2 L 868.54 210.2 C 865.429 210.2 862.445 208.964 860.246 206.764 C 858.046 204.565 856.81 201.581 856.81 198.47 L 856.81 196.01 L 837.56 196.01 C 829.698 196.016 823.326 202.388 823.32 210.25 L 823.32 527.15 C 823.32 530.927 824.82 534.549 827.491 537.219 C 830.161 539.89 833.783 541.39 837.56 541.39 L 966.22 541.39 C 969.997 541.393 973.621 539.893 976.292 537.222 C 978.963 534.551 980.463 530.927 980.46 527.15 L 980.46 210.24 C 980.454 202.379 974.081 196.01 966.22 196.01 L 966.22 196.01 Z " fill="rgb(255,255,255)"/><g opacity="0.1"><path d=" M 962.2 371.69 L 962.2 371.69 C 962.142 370.387 961.906 369.099 961.5 367.86 C 961.481 367.789 961.458 367.718 961.43 367.65 C 959.762 362.748 955.616 359.101 950.541 358.072 C 945.466 357.042 940.226 358.786 936.78 362.65 C 936.535 361.257 936.146 359.893 935.62 358.58 C 931.79 359.063 927.925 359.206 924.07 359.01 C 926.434 360.094 928.882 360.984 931.39 361.67 L 931.3 362 C 928.484 361.237 925.745 360.213 923.12 358.94 L 922.33 358.55 L 923.21 358.61 C 927.305 358.879 931.417 358.762 935.49 358.26 C 934.607 356.158 933.384 354.215 931.87 352.51 C 925.231 351.961 918.724 350.343 912.6 347.72 L 912.74 347.4 C 918.708 349.968 925.048 351.565 931.52 352.13 C 927.096 347.394 920.704 345.012 914.259 345.698 C 907.815 346.384 902.067 350.058 898.74 355.62 C 898.136 349.704 895.687 344.128 891.74 339.68 C 882.891 343.211 873.385 344.793 863.87 344.32 C 866.232 345.409 868.68 346.298 871.19 346.98 L 871.1 347.31 C 868.284 346.547 865.545 345.523 862.92 344.25 L 862.13 343.87 L 863.01 343.93 C 872.725 344.567 882.459 343.023 891.5 339.41 C 891.16 339.04 890.81 338.68 890.45 338.32 C 879.16 338.55 866.86 338.44 855.73 334.38 C 847.344 339.558 842.241 348.714 842.25 358.57 C 842.25 363.9 843.71 371.23 846.25 378.57 C 847.381 381.863 848.717 385.083 850.25 388.21 Q 851.42 390.59 852.72 392.81 L 852.72 392.81 C 853.77 394.598 854.922 396.324 856.17 397.98 L 856.86 398.85 C 858.146 400.469 859.586 401.959 861.16 403.3 L 861.16 403.3 C 861.48 403.57 861.8 403.82 862.16 404.06 C 863.026 404.711 863.946 405.286 864.91 405.78 C 866.525 406.61 868.297 407.091 870.11 407.19 L 870.54 407.19 L 870.54 407.24 L 947.63 407.24 L 947.63 407.19 L 947.69 407.19 C 948.133 407.187 948.573 407.11 948.99 406.96 C 951.72 405.96 954.23 402.11 956.31 397.2 C 956.78 396.11 957.22 394.97 957.64 393.8 C 958.06 392.63 958.36 391.72 958.69 390.65 C 959.69 387.45 960.51 384.16 961.12 381.18 C 961.76 378.276 962.142 375.321 962.26 372.35 C 962.22 372.13 962.21 371.91 962.2 371.69 Z " fill="rgb(78,115,223)"/></g><g opacity="0.1"><path d=" M 890.07 338.01 C 880.879 329.251 866.979 327.685 856.07 334.18 C 867 338.01 879 338.18 890.07 338.01 Z " fill="rgb(78,115,223)"/></g><g opacity="0.1"><path d=" M 953.23 401.31 L 941.33 380.7 C 941.262 380.582 941.136 380.508 941 380.508 C 940.864 380.508 940.738 380.582 940.67 380.7 L 928.77 401.31 C 928.702 401.428 928.702 401.573 928.77 401.69 C 928.838 401.808 928.964 401.88 929.1 401.88 L 932.65 401.88 C 932.86 401.88 933.03 402.05 933.03 402.26 L 933.03 406.66 C 933.03 406.87 933.2 407.04 933.41 407.04 L 938 407.04 C 938.21 407.04 938.38 406.87 938.38 406.66 L 938.38 404.54 C 938.38 404.33 938.55 404.16 938.76 404.16 L 943.16 404.16 C 943.37 404.16 943.54 404.33 943.54 404.54 L 943.54 406.66 C 943.54 406.87 943.71 407.04 943.92 407.04 L 948.55 407.04 C 948.713 407.04 948.858 406.935 948.91 406.78 C 948.917 406.74 948.917 406.7 948.91 406.66 L 948.91 402.26 C 948.91 402.05 949.08 401.88 949.29 401.88 L 952.84 401.88 C 952.986 401.905 953.134 401.843 953.218 401.72 C 953.302 401.597 953.306 401.437 953.23 401.31 L 953.23 401.31 Z  M 936.64 403.59 C 936.568 403.66 936.471 403.7 936.37 403.7 L 934.7 403.7 C 934.49 403.7 934.32 403.53 934.32 403.32 C 934.319 403.222 934.358 403.127 934.43 403.06 C 934.501 402.987 934.598 402.944 934.7 402.94 L 936.37 402.94 C 936.58 402.94 936.75 403.11 936.75 403.32 C 936.752 403.421 936.712 403.519 936.64 403.59 L 936.64 403.59 Z  M 947.57 403.59 C 947.499 403.662 947.401 403.702 947.3 403.7 L 945.63 403.7 C 945.42 403.7 945.25 403.53 945.25 403.32 C 945.249 403.222 945.288 403.127 945.36 403.06 C 945.431 402.987 945.528 402.944 945.63 402.94 L 947.3 402.94 C 947.51 402.94 947.68 403.11 947.68 403.32 C 947.682 403.421 947.642 403.519 947.57 403.59 L 947.57 403.59 Z " fill="rgb(78,115,223)"/></g><g opacity="0.1"><path d=" M 879.68 401.49 L 867.78 380.88 C 867.712 380.762 867.586 380.688 867.45 380.688 C 867.314 380.688 867.188 380.762 867.12 380.88 L 856.85 398.68 C 858.136 400.299 859.576 401.789 861.15 403.13 L 862.82 403.13 C 862.969 403.106 863.118 403.171 863.2 403.297 C 863.282 403.424 863.282 403.586 863.2 403.713 C 863.118 403.839 862.969 403.904 862.82 403.88 L 862.12 403.88 C 862.986 404.531 863.906 405.106 864.87 405.6 L 864.87 404.72 C 864.87 404.51 865.04 404.34 865.25 404.34 L 869.66 404.34 C 869.866 404.345 870.03 404.514 870.03 404.72 L 870.03 406.84 C 870.035 407.048 870.202 407.215 870.41 407.22 L 875.05 407.22 C 875.168 407.219 875.279 407.164 875.35 407.07 C 875.4 407.004 875.425 406.923 875.42 406.84 L 875.42 402.44 C 875.42 402.23 875.59 402.06 875.8 402.06 L 879.35 402.06 C 879.486 402.06 879.612 401.988 879.68 401.87 C 879.748 401.753 879.748 401.608 879.68 401.49 Z  M 871.82 403.24 C 871.887 403.168 871.982 403.129 872.08 403.13 L 873.75 403.13 C 873.899 403.106 874.048 403.171 874.13 403.297 C 874.212 403.424 874.212 403.586 874.13 403.713 C 874.048 403.839 873.899 403.904 873.75 403.88 L 872.08 403.88 C 871.87 403.88 871.7 403.71 871.7 403.5 C 871.703 403.401 871.747 403.307 871.82 403.24 L 871.82 403.24 Z  M 864.34 395.61 C 864.13 395.61 863.96 395.44 863.96 395.23 L 863.96 392.35 C 863.96 392.14 864.13 391.97 864.34 391.97 L 870.57 391.97 C 870.78 391.97 870.95 392.14 870.95 392.35 L 870.95 395.23 C 870.95 395.44 870.78 395.61 870.57 395.61 L 864.34 395.61 Z " fill="rgb(78,115,223)"/></g><g opacity="0.1"><path d=" M 926.72 364.47 L 912 364.47 L 912 361.28 C 912 360.86 911.66 360.52 911.24 360.52 L 906.9 360.52 L 906.9 357.13 C 906.9 356.869 906.691 356.655 906.43 356.65 L 900.86 356.65 C 900.733 356.65 900.611 356.701 900.521 356.791 C 900.431 356.881 900.38 357.003 900.38 357.13 L 900.38 360.52 L 895.29 360.52 C 894.87 360.52 894.53 360.86 894.53 361.28 L 894.53 364.47 L 880.53 364.47 C 880.447 364.47 880.38 364.537 880.38 364.62 L 880.38 406.9 C 880.38 406.985 880.446 407.055 880.53 407.06 L 889.86 407.06 C 889.948 407.06 890.02 406.988 890.02 406.9 L 890.02 401.21 C 890.02 401.127 890.087 401.06 890.17 401.06 L 894.11 401.06 C 894.195 401.06 894.265 401.126 894.27 401.21 L 894.27 406.9 C 894.27 406.985 894.336 407.055 894.42 407.06 L 912.86 407.06 C 912.948 407.06 913.02 406.988 913.02 406.9 L 913.02 401.21 C 913.02 401.127 913.087 401.06 913.17 401.06 L 917.11 401.06 C 917.195 401.06 917.265 401.126 917.27 401.21 L 917.27 406.9 C 917.27 406.985 917.336 407.055 917.42 407.06 L 926.76 407.06 C 926.844 407.055 926.91 406.985 926.91 406.9 L 926.91 364.62 C 926.912 364.572 926.891 364.526 926.853 364.497 C 926.816 364.467 926.766 364.457 926.72 364.47 L 926.72 364.47 Z  M 888.31 399.08 C 888.31 399.168 888.238 399.24 888.15 399.24 L 882.39 399.24 C 882.302 399.24 882.23 399.168 882.23 399.08 L 882.23 397.08 C 882.235 396.996 882.305 396.93 882.39 396.93 L 888.15 396.93 C 888.235 396.93 888.305 396.996 888.31 397.08 L 888.31 399.08 Z  M 888.31 394 C 888.305 394.084 888.235 394.15 888.15 394.15 L 882.39 394.15 C 882.305 394.15 882.235 394.084 882.23 394 L 882.23 392 C 882.23 391.912 882.302 391.84 882.39 391.84 L 888.15 391.84 C 888.238 391.84 888.31 391.912 888.31 392 L 888.31 394 Z  M 888.31 388.91 C 888.31 388.998 888.238 389.07 888.15 389.07 L 882.39 389.07 C 882.302 389.07 882.23 388.998 882.23 388.91 L 882.23 386.91 C 882.235 386.826 882.305 386.76 882.39 386.76 L 888.15 386.76 C 888.235 386.76 888.305 386.826 888.31 386.91 L 888.31 388.91 Z  M 888.31 383.82 C 888.31 383.908 888.238 383.98 888.15 383.98 L 882.39 383.98 C 882.302 383.98 882.23 383.908 882.23 383.82 L 882.23 381.82 C 882.23 381.732 882.302 381.66 882.39 381.66 L 888.15 381.66 C 888.238 381.66 888.31 381.732 888.31 381.82 L 888.31 383.82 Z  M 888.31 378.74 C 888.305 378.824 888.235 378.89 888.15 378.89 L 882.39 378.89 C 882.305 378.89 882.235 378.824 882.23 378.74 L 882.23 376.74 C 882.235 376.656 882.305 376.59 882.39 376.59 L 888.15 376.59 C 888.235 376.59 888.305 376.656 888.31 376.74 L 888.31 378.74 Z  M 888.31 373.65 C 888.31 373.738 888.238 373.81 888.15 373.81 L 882.39 373.81 C 882.302 373.81 882.23 373.738 882.23 373.65 L 882.23 371.65 C 882.235 371.566 882.305 371.5 882.39 371.5 L 888.15 371.5 C 888.235 371.5 888.305 371.566 888.31 371.65 L 888.31 373.65 Z  M 888.31 368.57 C 888.305 368.654 888.235 368.72 888.15 368.72 L 882.39 368.72 C 882.305 368.72 882.235 368.654 882.23 368.57 L 882.23 366.57 C 882.23 366.482 882.302 366.41 882.39 366.41 L 888.15 366.41 C 888.238 366.41 888.31 366.482 888.31 366.57 L 888.31 368.57 Z  M 902 399.08 C 902 399.165 901.934 399.235 901.85 399.24 L 896.08 399.24 C 895.996 399.235 895.93 399.165 895.93 399.08 L 895.93 397.08 C 895.93 396.997 895.997 396.93 896.08 396.93 L 901.85 396.93 C 901.933 396.93 902 396.997 902 397.08 L 902 399.08 Z  M 902 394 C 902 394.083 901.933 394.15 901.85 394.15 L 896.08 394.15 C 895.997 394.15 895.93 394.083 895.93 394 L 895.93 392 C 895.93 391.915 895.996 391.845 896.08 391.84 L 901.85 391.84 C 901.934 391.845 902 391.915 902 392 L 902 394 Z  M 902 388.91 C 902 388.995 901.934 389.065 901.85 389.07 L 896.08 389.07 C 895.996 389.065 895.93 388.995 895.93 388.91 L 895.93 386.91 C 895.93 386.827 895.997 386.76 896.08 386.76 L 901.85 386.76 C 901.933 386.76 902 386.827 902 386.91 L 902 388.91 Z  M 902 383.82 C 902 383.905 901.934 383.975 901.85 383.98 L 896.08 383.98 C 895.996 383.975 895.93 383.905 895.93 383.82 L 895.93 381.82 C 895.93 381.735 895.996 381.665 896.08 381.66 L 901.85 381.66 C 901.934 381.665 902 381.735 902 381.82 L 902 383.82 Z  M 902 378.74 C 902 378.823 901.933 378.89 901.85 378.89 L 896.08 378.89 C 895.997 378.89 895.93 378.823 895.93 378.74 L 895.93 376.74 C 895.93 376.657 895.997 376.59 896.08 376.59 L 901.85 376.59 C 901.933 376.59 902 376.657 902 376.74 L 902 378.74 Z  M 902 373.65 C 902 373.735 901.934 373.805 901.85 373.81 L 896.08 373.81 C 895.996 373.805 895.93 373.735 895.93 373.65 L 895.93 371.65 C 895.93 371.567 895.997 371.5 896.08 371.5 L 901.85 371.5 C 901.933 371.5 902 371.567 902 371.65 L 902 373.65 Z  M 902 368.57 C 902 368.653 901.933 368.72 901.85 368.72 L 896.08 368.72 C 895.997 368.72 895.93 368.653 895.93 368.57 L 895.93 366.57 C 895.93 366.485 895.996 366.415 896.08 366.41 L 901.85 366.41 C 901.934 366.415 902 366.485 902 366.57 L 902 368.57 Z  M 911.34 399.08 C 911.34 399.168 911.268 399.24 911.18 399.24 L 905.42 399.24 C 905.332 399.24 905.26 399.168 905.26 399.08 L 905.26 397.08 C 905.265 396.996 905.335 396.93 905.42 396.93 L 911.18 396.93 C 911.265 396.93 911.335 396.996 911.34 397.08 L 911.34 399.08 Z  M 911.34 394 C 911.335 394.084 911.265 394.15 911.18 394.15 L 905.42 394.15 C 905.335 394.15 905.265 394.084 905.26 394 L 905.26 392 C 905.26 391.912 905.332 391.84 905.42 391.84 L 911.18 391.84 C 911.268 391.84 911.34 391.912 911.34 392 L 911.34 394 Z  M 911.34 388.91 C 911.34 388.998 911.268 389.07 911.18 389.07 L 905.42 389.07 C 905.332 389.07 905.26 388.998 905.26 388.91 L 905.26 386.91 C 905.265 386.826 905.335 386.76 905.42 386.76 L 911.18 386.76 C 911.265 386.76 911.335 386.826 911.34 386.91 L 911.34 388.91 Z  M 911.34 383.82 C 911.34 383.908 911.268 383.98 911.18 383.98 L 905.42 383.98 C 905.332 383.98 905.26 383.908 905.26 383.82 L 905.26 381.82 C 905.26 381.732 905.332 381.66 905.42 381.66 L 911.18 381.66 C 911.268 381.66 911.34 381.732 911.34 381.82 L 911.34 383.82 Z  M 911.34 378.74 C 911.335 378.824 911.265 378.89 911.18 378.89 L 905.42 378.89 C 905.335 378.89 905.265 378.824 905.26 378.74 L 905.26 376.74 C 905.265 376.656 905.335 376.59 905.42 376.59 L 911.18 376.59 C 911.265 376.59 911.335 376.656 911.34 376.74 L 911.34 378.74 Z  M 911.34 373.65 C 911.34 373.738 911.268 373.81 911.18 373.81 L 905.42 373.81 C 905.332 373.81 905.26 373.738 905.26 373.65 L 905.26 371.65 C 905.265 371.566 905.335 371.5 905.42 371.5 L 911.18 371.5 C 911.265 371.5 911.335 371.566 911.34 371.65 L 911.34 373.65 Z  M 911.34 368.57 C 911.335 368.654 911.265 368.72 911.18 368.72 L 905.42 368.72 C 905.335 368.72 905.265 368.654 905.26 368.57 L 905.26 366.57 C 905.26 366.482 905.332 366.41 905.42 366.41 L 911.18 366.41 C 911.268 366.41 911.34 366.482 911.34 366.57 L 911.34 368.57 Z  M 925 399.08 C 925 399.165 924.934 399.235 924.85 399.24 L 919.08 399.24 C 918.996 399.235 918.93 399.165 918.93 399.08 L 918.93 397.08 C 918.93 396.997 918.997 396.93 919.08 396.93 L 924.85 396.93 C 924.933 396.93 925 396.997 925 397.08 L 925 399.08 Z  M 925 394 C 925 394.083 924.933 394.15 924.85 394.15 L 919.08 394.15 C 918.997 394.15 918.93 394.083 918.93 394 L 918.93 392 C 918.93 391.915 918.996 391.845 919.08 391.84 L 924.85 391.84 C 924.934 391.845 925 391.915 925 392 L 925 394 Z  M 925 388.91 C 925 388.995 924.934 389.065 924.85 389.07 L 919.08 389.07 C 918.996 389.065 918.93 388.995 918.93 388.91 L 918.93 386.91 C 918.93 386.827 918.997 386.76 919.08 386.76 L 924.85 386.76 C 924.933 386.76 925 386.827 925 386.91 L 925 388.91 Z  M 925 383.82 C 925 383.905 924.934 383.975 924.85 383.98 L 919.08 383.98 C 918.996 383.975 918.93 383.905 918.93 383.82 L 918.93 381.82 C 918.93 381.735 918.996 381.665 919.08 381.66 L 924.85 381.66 C 924.934 381.665 925 381.735 925 381.82 L 925 383.82 Z  M 925 378.74 C 925 378.823 924.933 378.89 924.85 378.89 L 919.08 378.89 C 918.997 378.89 918.93 378.823 918.93 378.74 L 918.93 376.74 C 918.93 376.657 918.997 376.59 919.08 376.59 L 924.85 376.59 C 924.933 376.59 925 376.657 925 376.74 L 925 378.74 Z  M 925 373.65 C 925 373.735 924.934 373.805 924.85 373.81 L 919.08 373.81 C 918.996 373.805 918.93 373.735 918.93 373.65 L 918.93 371.65 C 918.93 371.567 918.997 371.5 919.08 371.5 L 924.85 371.5 C 924.933 371.5 925 371.567 925 371.65 L 925 373.65 Z  M 925 368.57 C 925 368.653 924.933 368.72 924.85 368.72 L 919.08 368.72 C 918.997 368.72 918.93 368.653 918.93 368.57 L 918.93 366.57 C 918.93 366.485 918.996 366.415 919.08 366.41 L 924.85 366.41 C 924.934 366.415 925 366.485 925 366.57 L 925 368.57 Z " fill="rgb(78,115,223)"/></g><g opacity="0.1"><path d=" M 884.77 353.01 C 884.123 352.889 883.455 352.962 882.85 353.22 C 882.488 353.38 882.096 353.462 881.7 353.46 C 881.3 353.463 880.904 353.378 880.54 353.21 C 879.668 352.834 878.675 352.856 877.82 353.27 C 877.578 353.394 877.311 353.459 877.04 353.46 C 875.94 353.46 875.04 352.35 874.83 350.89 C 875.05 350.731 875.237 350.531 875.38 350.3 C 875.908 349.258 876.977 348.602 878.145 348.602 C 879.313 348.602 880.382 349.258 880.91 350.3 C 881.301 350.933 881.996 351.312 882.74 351.3 L 882.74 351.3 C 883.713 351.377 884.529 352.064 884.77 353.01 Z " fill="rgb(78,115,223)"/></g><g opacity="0.1"><path d=" M 888.13 348.42 L 886.35 349.54 L 887.43 347.54 C 887.124 347.292 886.744 347.155 886.35 347.15 L 886.35 347.15 C 886.227 347.165 886.103 347.165 885.98 347.15 L 885.37 347.53 L 885.63 347.06 C 885.206 346.908 884.839 346.628 884.58 346.26 L 883.5 346.94 L 884.18 345.7 C 883.598 344.951 882.709 344.503 881.76 344.48 C 880.6 344.531 879.551 345.188 879 346.21 C 878.612 346.846 877.915 347.227 877.17 347.21 L 877.11 347.21 C 875.87 347.21 874.86 348.62 874.86 350.35 C 874.86 352.08 875.86 353.49 877.11 353.49 C 877.382 353.492 877.65 353.427 877.89 353.3 C 878.752 352.9 879.748 352.9 880.61 353.3 C 881.347 353.62 882.183 353.62 882.92 353.3 C 883.774 352.91 884.756 352.91 885.61 353.3 C 885.847 353.427 886.111 353.492 886.38 353.49 C 887.62 353.49 888.63 352.09 888.63 350.35 C 888.629 349.675 888.457 349.011 888.13 348.42 L 888.13 348.42 Z " fill="rgb(78,115,223)"/></g><path d=" M 99.65 540.6 C 99.658 543.208 99.389 545.809 98.85 548.36 C 98.75 548.84 98.64 549.31 98.53 549.77 C 95.69 561.16 87.68 569.49 78.12 570.02 C 77.8 570.02 77.48 570.02 77.12 570.02 C 67.01 570.02 58.46 561.3 55.64 549.29 C 55.56 548.97 55.49 548.65 55.42 548.29 C 54.881 545.739 54.612 543.138 54.62 540.53 C 54.62 524.26 64.69 511.08 77.12 511.08 C 89.55 511.08 99.65 524.33 99.65 540.6 Z " fill="rgb(63,61,86)"/><g opacity="0.1"><path d=" M 99.65 540.6 C 99.658 543.208 99.389 545.809 98.85 548.36 C 98.75 548.84 98.64 549.31 98.53 549.77 C 98.19 549.77 97.86 549.77 97.53 549.77 C 95.054 549.637 92.592 549.302 90.17 548.77 C 88.024 549.433 85.831 549.935 83.61 550.27 C 81.907 550.526 80.191 550.687 78.47 550.75 L 76.73 550.75 C 74.67 550.75 72.612 550.613 70.57 550.34 C 67.268 549.899 64.025 549.094 60.9 547.94 C 59.189 548.51 57.446 548.977 55.68 549.34 C 55.6 549.02 55.53 548.7 55.46 548.34 C 54.921 545.789 54.652 543.188 54.66 540.58 C 54.66 524.31 64.73 511.13 77.16 511.13 C 89.59 511.13 99.65 524.33 99.65 540.6 Z " fill="rgb(0,0,0)"/></g><path d=" M 147.65 485.73 C 147.657 478.571 145.979 471.51 142.75 465.12 L 116.29 473.35 L 139.52 459.7 C 131.631 448.296 118.992 441.09 105.16 440.11 C 104.073 438.461 102.881 436.884 101.59 435.39 L 63.59 447.22 L 94.76 428.89 C 82.651 419.597 66.703 416.958 52.246 421.855 C 37.789 426.752 26.728 438.54 22.76 453.28 L 55.31 490.75 L 20 465.21 C 1.513 478.322 -4.584 502.995 5.668 523.208 C 15.92 543.422 39.429 553.079 60.93 545.91 C 70.34 549.369 80.623 549.654 90.21 546.72 C 103.749 549.715 117.916 546.407 128.728 537.725 C 139.54 529.044 145.83 515.926 145.83 502.06 C 145.83 501.06 145.83 500.06 145.73 499.06 C 147.024 494.736 147.671 490.244 147.65 485.73 L 147.65 485.73 Z " fill="rgb(209,140,41)"/><g opacity="0.1"><path d=" M 146.86 494.21 C 132.886 491.566 118.557 491.384 104.52 493.67 C 88.63 496.3 72.39 502.09 56.85 497.86 C 47.73 495.38 39.85 489.64 30.94 486.45 C 22.343 483.451 13.083 482.897 4.19 484.85 C -2.731 501.407 0.665 520.482 12.875 533.633 C 25.085 546.784 43.855 551.585 60.88 545.91 C 70.29 549.369 80.573 549.654 90.16 546.72 C 103.699 549.715 117.866 546.407 128.678 537.725 C 139.49 529.044 145.78 515.926 145.78 502.06 C 145.78 501.06 145.78 500.06 145.68 499.06 C 146.161 497.466 146.555 495.847 146.86 494.21 Z " fill="rgb(0,0,0)"/></g><path d=" M 493.71 206.14 L 474.71 205.3 C 470.36 205.11 465.4 205.17 462.5 208.41 C 459.41 211.86 460.22 217.28 462.04 221.55 C 463.86 225.82 466.52 229.91 466.66 234.55 C 466.87 241.85 460.88 247.63 455.45 252.55 C 450.02 257.47 444.22 263.55 445.01 270.82 C 445.63 276.49 450.15 280.87 454.61 284.41 C 461.401 289.803 468.722 294.494 476.46 298.41 C 480.89 300.65 485.61 302.67 490.58 302.72 C 494.94 302.77 499.16 301.3 503.26 299.82 C 510.39 297.26 517.71 294.49 523.12 289.2 C 525.879 286.379 528.204 283.164 530.02 279.66 C 539.37 262.66 541.86 241.4 534.26 223.53 C 532.677 219.537 530.295 215.91 527.26 212.87 C 519.16 205.2 506.8 204.87 495.64 204.96 C 493.61 204.819 491.577 205.179 489.72 206.01 C 487.95 207.01 486.72 209.24 487.54 211.09" fill="rgb(57,56,89)"/><path d=" M 469.39 441.38 C 468.661 461.498 469.409 481.642 471.63 501.65 C 471.89 503.94 472.16 506.23 472.63 508.49 C 473.91 515.49 476.53 522.2 478.58 529.03 C 480.63 535.86 482.15 543.03 481.14 550.1 Q 487.74 549.41 494.36 548.97 L 494.42 545.57 C 494.54 539.05 491.98 532.69 492.63 526.2 C 493.25 520.06 495.23 514.06 495.14 507.89 C 495.05 502.06 493.14 496.44 492.23 490.68 C 491.727 486.833 491.453 482.96 491.41 479.08 C 491.152 473.749 491.185 468.408 491.51 463.08 C 492.35 452.26 495.57 441.48 494.08 430.73 C 485.92 434.49 477.5 437.66 469.39 441.38 Z " fill="rgb(249,211,154)"/><path d=" M 489.36 573.4 C 489.862 573.445 490.368 573.362 490.83 573.16 C 491.49 572.627 491.91 571.853 492 571.01 C 492.714 568.332 493.848 565.783 495.36 563.46 C 496.49 561.73 497.87 559.97 497.89 557.91 C 497.89 554.58 494.41 552.25 493.68 549 C 493.586 547.954 493.379 546.921 493.06 545.92 C 492.24 544.17 490.06 543.57 488.18 543.18 C 485.62 542.64 482.31 542.42 481.04 544.7 C 479.96 546.64 481.16 549 481.32 551.21 C 481.52 554.21 479.74 556.97 477.82 559.28 C 475.57 562 469.66 568.51 473.26 572.28 C 474.61 573.7 477.55 573.22 479.26 573.28 L 489.36 573.4 Z " fill="rgb(63,61,86)"/><path d=" M 528 441.38 C 528.731 461.498 527.979 481.643 525.75 501.65 C 525.5 503.94 525.23 506.23 524.81 508.49 C 523.53 515.49 520.91 522.2 518.81 529.03 C 516.71 535.86 515.25 543.03 516.26 550.1 Q 509.66 549.41 503.04 548.97 L 502.98 545.57 C 502.86 539.05 505.41 532.69 504.76 526.2 C 504.15 520.06 502.17 514.06 502.26 507.89 C 502.35 502.06 504.26 496.44 505.16 490.68 C 505.672 486.834 505.949 482.96 505.99 479.08 C 506.248 473.749 506.215 468.408 505.89 463.08 C 505.05 452.26 501.82 441.48 503.32 430.73 C 511.51 434.49 519.92 437.66 528 441.38 Z " fill="rgb(249,211,154)"/><path d=" M 508.06 573.4 C 507.561 573.443 507.059 573.361 506.6 573.16 C 505.926 572.634 505.49 571.86 505.39 571.01 C 504.676 568.332 503.542 565.783 502.03 563.46 C 500.9 561.73 499.51 559.97 499.5 557.91 C 499.5 554.58 502.98 552.25 503.7 549 C 503.797 547.953 504.008 546.921 504.33 545.92 C 505.15 544.17 507.33 543.57 509.21 543.18 C 511.77 542.64 515.07 542.42 516.35 544.7 C 517.43 546.64 516.22 549 516.07 551.21 C 515.86 554.21 517.65 556.97 519.57 559.28 C 521.82 562 527.73 568.51 524.13 572.28 C 522.78 573.7 519.84 573.22 518.13 573.28 L 508.06 573.4 Z " fill="rgb(63,61,86)"/><circle vector-effect="non-scaling-stroke" cx="492.30999999999995" cy="243.58999999999997" r="20.48999999999998" fill="rgb(249,211,154)"/><path d=" M 480.7 262.06 C 481.01 263.011 481.112 264.017 481 265.01 C 480.688 266.04 480.091 266.962 479.28 267.67 C 476.386 270.586 472.934 272.888 469.13 274.44 C 468.73 275.73 469.48 277.06 470.21 278.18 C 472.67 281.97 475.27 285.65 477.88 289.34 C 482.566 296.553 488.463 302.903 495.31 308.11 L 501.31 300.57 C 502.564 299.065 503.726 297.485 504.79 295.84 C 505.989 293.792 507.032 291.655 507.91 289.45 L 515.24 272.45 C 510.83 273.34 506.35 271.31 502.58 268.84 C 501.823 268.424 501.189 267.817 500.74 267.08 C 500.445 266.392 500.309 265.647 500.34 264.9 Q 500.16 259.6 500.19 254.31 C 494.886 253.579 489.543 253.162 484.19 253.06 C 482.11 253.06 480.71 252.62 480.19 254.82 C 479.67 257.02 480.25 259.93 480.7 262.06 Z " fill="rgb(249,211,154)"/><path d=" M 489.8 300.62 C 486.496 294.798 482.464 289.422 477.8 284.62 C 476.759 283.695 475.907 282.578 475.29 281.33 C 474.932 280.307 474.743 279.233 474.73 278.15 L 474.37 272.86 C 474.382 272.563 474.286 272.272 474.1 272.04 C 473.867 271.867 473.579 271.785 473.29 271.81 C 472.027 271.637 470.741 271.824 469.58 272.35 C 468.836 272.873 468.163 273.492 467.58 274.19 C 465.29 276.54 462.07 277.65 459.05 278.92 C 456.802 279.859 454.606 280.917 452.47 282.09 C 450.78 283.02 449.04 284.09 448.28 285.89 C 447.869 287.037 447.686 288.253 447.74 289.47 L 447 332.01 C 447.168 333.154 446.442 334.239 445.32 334.52 C 444.415 334.914 443.619 335.521 443 336.29 C 442.395 337.097 442.359 338.195 442.91 339.04 C 443.21 339.43 443.67 339.67 443.98 340.04 C 444.98 341.23 444.11 342.95 443.44 344.33 C 442.487 346.107 442.136 348.146 442.44 350.14 C 442.807 352.149 444.359 353.732 446.36 354.14 C 447.15 351.59 445.36 348.7 446.36 346.23 C 447.064 344.853 448.299 343.824 449.78 343.38 C 451.766 342.617 453.916 342.383 456.02 342.7 L 457.22 347.07 C 461.53 362.81 458.54 379.72 454.61 395.56 C 453.7 399.26 452.55 402.9 451.87 406.65 C 450.87 412.28 450.87 418.03 450.87 423.75 L 450.87 439.39 C 450.87 441.29 450.99 443.44 452.44 444.67 C 453.89 445.9 456.56 445.81 457.65 447.51 C 458.28 448.51 458.16 449.8 458.73 450.82 C 459.148 451.479 459.735 452.014 460.43 452.37 C 465.602 455.161 472.048 453.579 475.34 448.71 C 476.42 447 477.07 444.93 478.67 443.71 C 480.5 442.28 483.04 442.32 485.35 442.43 L 498.97 443.08 C 501.305 443.096 503.63 443.401 505.89 443.99 C 507.899 444.718 509.863 445.567 511.77 446.53 C 516.102 448.427 520.818 449.283 525.54 449.03 C 526.835 449.035 528.111 448.727 529.26 448.13 C 530.56 447.35 531.46 445.93 532.89 445.4 C 534.5 444.8 536.57 445.4 537.82 444.23 C 538.548 443.341 538.907 442.206 538.82 441.06 L 539.39 427.69 C 539.99 413.9 540.52 399.69 535.97 386.69 C 534.86 383.52 533.46 380.45 532.61 377.2 C 531.887 373.835 531.349 370.434 531 367.01 C 529.59 357.5 526.38 348.14 527 338.55 C 527 337.82 527.64 337.65 528.36 337.55 C 530.9 337.3 533.67 337.77 535.48 339.55 C 537.09 341.15 537.66 343.55 537.84 345.78 C 538.109 347.393 537.804 349.048 536.98 350.46 L 540.74 347.7 C 541.94 346.82 543.28 345.61 543.04 344.14 C 542.33 339.77 542.57 334.88 542.04 330.49 C 541.261 323.042 540.062 315.643 538.45 308.33 C 537.85 306.252 537.366 304.142 537 302.01 C 536.64 299.09 536.84 296.14 536.65 293.2 C 536.367 289.038 535.302 284.967 533.51 281.2 C 533.011 280.044 532.336 278.971 531.51 278.02 C 530.378 276.913 529.066 276.007 527.63 275.34 C 521.427 272.115 514.827 269.718 508 268.21 C 506.65 267.92 505.1 267.7 504 268.54 C 502.6 269.62 502.76 271.79 503.38 273.45 C 504 275.11 504.95 276.78 504.68 278.53 C 504.41 280.28 502.92 281.66 501.68 283.05 C 498.51 286.76 497.07 291.76 493.68 295.3 C 492.23 296.93 490.13 298.38 489.8 300.62 Z " fill="rgb(209,140,42)"/><path d=" M 477.07 233.47 C 478.8 234.91 480.25 236.91 482.45 237.38 C 487.75 238.5 491.89 229.93 496.99 231.76 C 498.85 232.43 499.99 234.28 501.42 235.58 C 505.02 238.512 510.281 238.131 513.42 234.71 C 516.1 231.58 516.13 227.06 516.03 222.94 C 516.12 221.415 515.813 219.892 515.14 218.52 C 514.668 217.798 514.068 217.168 513.37 216.66 C 507.32 211.93 499.15 211.25 491.49 210.76 C 489.823 210.567 488.135 210.638 486.49 210.97 C 484.21 211.55 482.33 213.09 480.49 214.59 C 477.05 217.45 468.68 222.89 467.63 227.5 C 466.58 232.11 473.67 230.65 477.07 233.47 Z " fill="rgb(57,56,89)"/><path d="M 455.73 295.07 L 524.79 295.07 C 526.23 295.07 527.4 296.24 527.4 297.68 L 527.4 372.89 C 527.4 374.33 526.23 375.5 524.79 375.5 L 455.73 375.5 C 454.29 375.5 453.12 374.33 453.12 372.89 L 453.12 297.68 C 453.12 296.24 454.29 295.07 455.73 295.07 Z" style="stroke:none;fill:#6C4815;stroke-miterlimit:10;"/><path d="M 462.13 302.01 L 518.39 302.01 C 519.83 302.01 521 303.18 521 304.62 L 521 348.05 C 521 349.49 519.83 350.66 518.39 350.66 L 462.13 350.66 C 460.69 350.66 459.52 349.49 459.52 348.05 L 459.52 304.62 C 459.52 303.18 460.69 302.01 462.13 302.01 Z" style="stroke:none;fill:#FFFFFF;stroke-miterlimit:10;"/><g opacity="0.3"><path d=" M 513 327.47 L 513 327.47 C 512.973 326.974 512.882 326.483 512.73 326.01 L 512.73 325.94 C 512.096 324.079 510.522 322.694 508.595 322.303 C 506.669 321.912 504.679 322.573 503.37 324.04 C 503.28 323.512 503.132 322.996 502.93 322.5 C 501.478 322.683 500.012 322.737 498.55 322.66 C 499.444 323.077 500.375 323.412 501.33 323.66 L 501.33 323.79 C 500.263 323.499 499.226 323.111 498.23 322.63 L 497.93 322.48 L 498.26 322.48 C 499.814 322.587 501.374 322.543 502.92 322.35 C 502.589 321.552 502.125 320.815 501.55 320.17 C 499.028 319.962 496.556 319.347 494.23 318.35 L 494.29 318.23 C 496.556 319.203 498.963 319.807 501.42 320.02 C 499.74 318.219 497.311 317.314 494.863 317.575 C 492.414 317.837 490.231 319.235 488.97 321.35 C 488.738 319.103 487.804 316.986 486.3 315.3 C 482.941 316.641 479.332 317.241 475.72 317.06 C 476.618 317.467 477.548 317.801 478.5 318.06 L 478.5 318.18 C 477.433 317.889 476.396 317.501 475.4 317.02 L 475.1 316.88 L 475.43 316.88 C 479.12 317.121 482.817 316.533 486.25 315.16 C 486.12 315.02 485.99 314.88 485.85 314.75 C 481.56 314.84 476.9 314.75 472.67 313.25 C 469.486 315.219 467.549 318.696 467.55 322.44 C 467.664 325.036 468.176 327.6 469.07 330.04 C 469.502 331.29 470.009 332.512 470.59 333.7 C 470.89 334.3 471.2 334.88 471.53 335.44 L 471.53 335.44 C 471.928 336.131 472.365 336.799 472.84 337.44 L 473.1 337.77 C 473.587 338.388 474.137 338.954 474.74 339.46 L 474.74 339.46 C 474.855 339.563 474.975 339.659 475.1 339.75 C 475.431 339.998 475.783 340.219 476.15 340.41 C 476.771 340.728 477.453 340.909 478.15 340.94 L 478.32 340.94 L 478.32 340.94 L 507.59 340.94 L 507.59 340.94 L 507.59 340.94 C 507.756 340.939 507.922 340.912 508.08 340.86 C 509.08 340.49 510.08 339.01 510.87 337.15 C 511.04 336.74 511.21 336.31 511.37 335.86 C 511.53 335.41 511.64 335.07 511.77 334.67 C 512.15 333.45 512.46 332.2 512.69 331.07 C 512.934 329.969 513.078 328.847 513.12 327.72 L 513 327.47 Z " fill="rgb(78,115,223)"/></g><g opacity="0.3"><path d=" M 485.65 314.66 C 482.163 311.327 476.879 310.734 472.74 313.21 C 476.88 314.69 481.44 314.74 485.65 314.66 Z " fill="rgb(78,115,223)"/></g><g opacity="0.3"><path d=" M 509.63 338.71 L 505.11 330.89 C 505.086 330.843 505.038 330.813 504.985 330.813 C 504.932 330.813 504.884 330.843 504.86 330.89 L 500.34 338.71 C 500.316 338.756 500.317 338.811 500.344 338.856 C 500.37 338.901 500.418 338.929 500.47 338.93 L 501.82 338.93 C 501.897 338.93 501.96 338.993 501.96 339.07 L 501.96 340.75 C 501.96 340.827 502.023 340.89 502.1 340.89 L 503.86 340.89 C 503.939 340.89 504.005 340.829 504.01 340.75 L 504.01 339.94 C 504.01 339.861 504.071 339.795 504.15 339.79 L 505.82 339.79 C 505.903 339.79 505.97 339.857 505.97 339.94 L 505.97 340.75 C 505.97 340.827 506.033 340.89 506.11 340.89 L 507.87 340.89 C 507.932 340.892 507.986 340.85 508 340.79 L 508 339.11 C 508.005 339.031 508.071 338.97 508.15 338.97 L 509.49 338.97 C 509.559 338.993 509.634 338.963 509.669 338.899 C 509.703 338.835 509.687 338.755 509.63 338.71 Z  M 503.33 339.58 C 503.298 339.593 503.262 339.593 503.23 339.58 L 502.59 339.58 C 502.513 339.58 502.45 339.517 502.45 339.44 C 502.439 339.408 502.439 339.372 502.45 339.34 C 502.475 339.31 502.511 339.292 502.55 339.29 L 503.19 339.29 C 503.269 339.295 503.33 339.361 503.33 339.44 C 503.357 339.483 503.357 339.537 503.33 339.58 L 503.33 339.58 Z  M 507.48 339.58 C 507.448 339.593 507.412 339.593 507.38 339.58 L 506.74 339.58 C 506.663 339.58 506.6 339.517 506.6 339.44 C 506.589 339.408 506.589 339.372 506.6 339.34 C 506.625 339.31 506.661 339.292 506.7 339.29 L 507.34 339.29 C 507.419 339.295 507.48 339.361 507.48 339.44 C 507.507 339.483 507.507 339.537 507.48 339.58 L 507.48 339.58 Z " fill="rgb(78,115,223)"/></g><g opacity="0.3"><path d=" M 481.7 338.78 L 477.19 331.01 C 477.166 330.963 477.118 330.933 477.065 330.933 C 477.012 330.933 476.964 330.963 476.94 331.01 L 473 337.72 C 473.49 338.333 474.039 338.895 474.64 339.4 L 475.27 339.4 C 475.353 339.4 475.42 339.467 475.42 339.55 C 475.418 339.589 475.4 339.625 475.37 339.65 C 475.338 339.661 475.302 339.661 475.27 339.65 L 475 339.65 C 475.334 339.892 475.685 340.109 476.05 340.3 L 476.05 340.01 C 476.05 339.931 476.111 339.865 476.19 339.86 L 477.87 339.86 C 477.949 339.865 478.01 339.931 478.01 340.01 L 478.01 340.81 C 478.008 340.83 478.008 340.85 478.01 340.87 C 478.036 340.92 478.085 340.953 478.14 340.96 L 479.9 340.96 C 479.948 340.962 479.993 340.939 480.02 340.9 C 480.032 340.871 480.032 340.839 480.02 340.81 L 480.02 339.14 C 480.02 339.063 480.083 339 480.16 339 L 481.51 339 C 481.571 339.052 481.663 339.046 481.715 338.985 C 481.767 338.924 481.761 338.832 481.7 338.78 L 481.7 338.78 Z  M 478.7 339.44 C 478.732 339.429 478.768 339.429 478.8 339.44 L 479.43 339.44 C 479.513 339.44 479.58 339.507 479.58 339.59 C 479.578 339.629 479.56 339.665 479.53 339.69 C 479.498 339.701 479.462 339.701 479.43 339.69 L 478.8 339.69 C 478.721 339.69 478.655 339.629 478.65 339.55 C 478.657 339.505 478.682 339.465 478.72 339.44 L 478.7 339.44 Z  M 475.86 336.55 C 475.777 336.55 475.71 336.483 475.71 336.4 L 475.71 335.31 C 475.715 335.231 475.781 335.17 475.86 335.17 L 478.22 335.17 C 478.299 335.17 478.365 335.231 478.37 335.31 L 478.37 336.4 C 478.37 336.483 478.303 336.55 478.22 336.55 L 475.86 336.55 Z " fill="rgb(78,115,223)"/></g><g opacity="0.3"><path d=" M 499.56 324.72 L 494 324.72 L 494 323.52 C 494 323.36 493.87 323.23 493.71 323.23 L 492 323.23 L 492 321.94 C 492 321.841 491.919 321.76 491.82 321.76 L 489.7 321.76 C 489.601 321.76 489.52 321.841 489.52 321.94 L 489.52 323.23 L 487.59 323.23 C 487.43 323.23 487.3 323.36 487.3 323.52 L 487.3 324.72 L 482 324.72 C 481.967 324.72 481.94 324.747 481.94 324.78 L 481.94 340.84 C 481.945 340.869 481.97 340.89 482 340.89 L 485.54 340.89 C 485.54 340.89 485.6 340.89 485.6 340.84 L 485.6 338.68 C 485.6 338.647 485.627 338.62 485.66 338.62 L 487.16 338.62 C 487.193 338.62 487.22 338.647 487.22 338.68 L 487.22 340.84 C 487.22 340.84 487.22 340.89 487.28 340.89 L 494.28 340.89 C 494.31 340.89 494.335 340.869 494.34 340.84 L 494.34 338.68 C 494.34 338.68 494.34 338.62 494.34 338.62 L 495.84 338.62 C 495.873 338.62 495.9 338.647 495.9 338.68 L 495.9 340.84 C 495.905 340.869 495.93 340.89 495.96 340.89 L 499.5 340.89 C 499.53 340.89 499.555 340.869 499.56 340.84 L 499.56 324.78 C 499.571 324.761 499.571 324.739 499.56 324.72 Z  M 485 337.87 C 485 337.903 484.973 337.93 484.94 337.93 L 482.75 337.93 C 482.717 337.93 482.69 337.903 482.69 337.87 L 482.69 337.12 C 482.69 337.087 482.717 337.06 482.75 337.06 L 484.94 337.06 C 484.973 337.06 485 337.087 485 337.12 L 485 337.87 Z  M 485 335.94 C 485 335.973 484.973 336 484.94 336 L 482.75 336 C 482.717 336 482.69 335.973 482.69 335.94 L 482.69 335.19 C 482.69 335.157 482.717 335.13 482.75 335.13 L 484.94 335.13 C 484.973 335.13 485 335.157 485 335.19 L 485 335.94 Z  M 485 334.01 C 484.995 334.039 484.97 334.06 484.94 334.06 L 482.75 334.06 C 482.72 334.06 482.695 334.039 482.69 334.01 L 482.69 333.26 C 482.69 333.227 482.717 333.2 482.75 333.2 L 484.94 333.2 C 484.973 333.2 485 333.227 485 333.26 L 485 334.01 Z  M 485 332.07 C 485 332.103 484.973 332.13 484.94 332.13 L 482.75 332.13 C 482.717 332.13 482.69 332.103 482.69 332.07 L 482.69 331.33 C 482.69 331.297 482.717 331.27 482.75 331.27 L 484.94 331.27 C 484.973 331.27 485 331.297 485 331.33 L 485 332.07 Z  M 485 330.14 C 485 330.173 484.973 330.2 484.94 330.2 L 482.75 330.2 C 482.717 330.2 482.69 330.173 482.69 330.14 L 482.69 329.4 C 482.69 329.367 482.717 329.34 482.75 329.34 L 484.94 329.34 C 484.973 329.34 485 329.367 485 329.4 L 485 330.14 Z  M 485 328.21 C 485 328.243 484.973 328.27 484.94 328.27 L 482.75 328.27 C 482.717 328.27 482.69 328.243 482.69 328.21 L 482.69 327.46 C 482.695 327.431 482.72 327.41 482.75 327.41 L 484.94 327.41 C 484.97 327.41 484.995 327.431 485 327.46 L 485 328.21 Z  M 485 326.28 C 485 326.313 484.973 326.34 484.94 326.34 L 482.75 326.34 C 482.717 326.34 482.69 326.313 482.69 326.28 L 482.69 325.53 C 482.69 325.497 482.717 325.47 482.75 325.47 L 484.94 325.47 C 484.973 325.47 485 325.497 485 325.53 L 485 326.28 Z  M 490.19 337.87 C 490.19 337.903 490.163 337.93 490.13 337.93 L 487.94 337.93 C 487.907 337.93 487.88 337.903 487.88 337.87 L 487.88 337.12 C 487.88 337.087 487.907 337.06 487.94 337.06 L 490.13 337.06 C 490.163 337.06 490.19 337.087 490.19 337.12 L 490.19 337.87 Z  M 490.19 335.94 C 490.19 335.973 490.163 336 490.13 336 L 487.94 336 C 487.907 336 487.88 335.973 487.88 335.94 L 487.88 335.19 C 487.88 335.157 487.907 335.13 487.94 335.13 L 490.13 335.13 C 490.163 335.13 490.19 335.157 490.19 335.19 L 490.19 335.94 Z  M 490.19 334.01 C 490.185 334.039 490.16 334.06 490.13 334.06 L 487.94 334.06 C 487.91 334.06 487.885 334.039 487.88 334.01 L 487.88 333.26 C 487.88 333.227 487.907 333.2 487.94 333.2 L 490.13 333.2 C 490.163 333.2 490.19 333.227 490.19 333.26 L 490.19 334.01 Z  M 490.19 332.07 C 490.19 332.103 490.163 332.13 490.13 332.13 L 487.94 332.13 C 487.907 332.13 487.88 332.103 487.88 332.07 L 487.88 331.33 C 487.88 331.297 487.907 331.27 487.94 331.27 L 490.13 331.27 C 490.163 331.27 490.19 331.297 490.19 331.33 L 490.19 332.07 Z  M 490.19 330.14 C 490.19 330.173 490.163 330.2 490.13 330.2 L 487.94 330.2 C 487.907 330.2 487.88 330.173 487.88 330.14 L 487.88 329.4 C 487.88 329.367 487.907 329.34 487.94 329.34 L 490.13 329.34 C 490.163 329.34 490.19 329.367 490.19 329.4 L 490.19 330.14 Z  M 490.19 328.21 C 490.19 328.243 490.163 328.27 490.13 328.27 L 487.94 328.27 C 487.907 328.27 487.88 328.243 487.88 328.21 L 487.88 327.46 C 487.885 327.431 487.91 327.41 487.94 327.41 L 490.13 327.41 C 490.16 327.41 490.185 327.431 490.19 327.46 L 490.19 328.21 Z  M 490.19 326.28 C 490.19 326.313 490.163 326.34 490.13 326.34 L 487.94 326.34 C 487.907 326.34 487.88 326.313 487.88 326.28 L 487.88 325.53 C 487.88 325.497 487.907 325.47 487.94 325.47 L 490.13 325.47 C 490.163 325.47 490.19 325.497 490.19 325.53 L 490.19 326.28 Z  M 493.73 337.87 C 493.73 337.903 493.703 337.93 493.67 337.93 L 491.48 337.93 C 491.451 337.925 491.43 337.9 491.43 337.87 L 491.43 337.12 C 491.43 337.09 491.451 337.065 491.48 337.06 L 493.67 337.06 C 493.703 337.06 493.73 337.087 493.73 337.12 L 493.73 337.87 Z  M 493.73 335.94 C 493.73 335.973 493.703 336 493.67 336 L 491.48 336 C 491.451 335.995 491.43 335.97 491.43 335.94 L 491.43 335.19 C 491.43 335.16 491.451 335.135 491.48 335.13 L 493.67 335.13 C 493.703 335.13 493.73 335.157 493.73 335.19 L 493.73 335.94 Z  M 493.73 334.01 C 493.73 334.01 493.73 334.06 493.67 334.06 L 491.48 334.06 L 491.43 333.26 C 491.43 333.23 491.451 333.205 491.48 333.2 L 493.67 333.2 C 493.703 333.2 493.73 333.227 493.73 333.26 L 493.73 334.01 Z  M 493.73 332.07 C 493.734 332.087 493.729 332.104 493.717 332.117 C 493.704 332.129 493.687 332.134 493.67 332.13 L 491.48 332.13 C 491.48 332.13 491.43 332.13 491.43 332.07 L 491.43 331.33 C 491.43 331.33 491.43 331.27 491.48 331.27 L 493.67 331.27 C 493.687 331.266 493.704 331.271 493.717 331.283 C 493.729 331.296 493.734 331.313 493.73 331.33 L 493.73 332.07 Z  M 493.73 330.14 C 493.734 330.157 493.729 330.174 493.717 330.187 C 493.704 330.199 493.687 330.204 493.67 330.2 L 491.48 330.2 C 491.48 330.2 491.43 330.2 491.43 330.14 L 491.43 329.4 C 491.43 329.4 491.43 329.34 491.48 329.34 L 493.67 329.34 C 493.687 329.336 493.704 329.341 493.717 329.353 C 493.729 329.366 493.734 329.383 493.73 329.4 L 493.73 330.14 Z  M 493.73 328.21 C 493.73 328.243 493.703 328.27 493.67 328.27 L 491.48 328.27 C 491.451 328.265 491.43 328.24 491.43 328.21 L 491.43 327.46 L 493.67 327.41 C 493.67 327.41 493.73 327.41 493.73 327.46 L 493.73 328.21 Z  M 493.73 326.28 C 493.73 326.313 493.703 326.34 493.67 326.34 L 491.48 326.34 C 491.451 326.335 491.43 326.31 491.43 326.28 L 491.43 325.53 C 491.43 325.5 491.451 325.475 491.48 325.47 L 493.67 325.47 C 493.703 325.47 493.73 325.497 493.73 325.53 L 493.73 326.28 Z  M 498.92 337.87 C 498.92 337.903 498.893 337.93 498.86 337.93 L 496.67 337.93 C 496.637 337.93 496.61 337.903 496.61 337.87 L 496.61 337.12 C 496.61 337.087 496.637 337.06 496.67 337.06 L 498.86 337.06 C 498.893 337.06 498.92 337.087 498.92 337.12 L 498.92 337.87 Z  M 498.92 335.94 C 498.92 335.973 498.893 336 498.86 336 L 496.67 336 C 496.637 336 496.61 335.973 496.61 335.94 L 496.61 335.19 C 496.61 335.157 496.637 335.13 496.67 335.13 L 498.86 335.13 C 498.893 335.13 498.92 335.157 498.92 335.19 L 498.92 335.94 Z  M 498.92 334.01 C 498.915 334.039 498.89 334.06 498.86 334.06 L 496.67 334.06 C 496.64 334.06 496.615 334.039 496.61 334.01 L 496.61 333.26 C 496.61 333.227 496.637 333.2 496.67 333.2 L 498.86 333.2 C 498.893 333.2 498.92 333.227 498.92 333.26 L 498.92 334.01 Z  M 498.92 332.07 C 498.92 332.103 498.893 332.13 498.86 332.13 L 496.67 332.13 C 496.637 332.13 496.61 332.103 496.61 332.07 L 496.61 331.33 C 496.61 331.297 496.637 331.27 496.67 331.27 L 498.86 331.27 C 498.893 331.27 498.92 331.297 498.92 331.33 L 498.92 332.07 Z  M 498.92 330.14 C 498.92 330.173 498.893 330.2 498.86 330.2 L 496.67 330.2 C 496.637 330.2 496.61 330.173 496.61 330.14 L 496.61 329.4 C 496.61 329.367 496.637 329.34 496.67 329.34 L 498.86 329.34 C 498.893 329.34 498.92 329.367 498.92 329.4 L 498.92 330.14 Z  M 498.92 328.21 C 498.92 328.243 498.893 328.27 498.86 328.27 L 496.67 328.27 C 496.637 328.27 496.61 328.243 496.61 328.21 L 496.61 327.46 C 496.615 327.431 496.64 327.41 496.67 327.41 L 498.86 327.41 C 498.89 327.41 498.915 327.431 498.92 327.46 L 498.92 328.21 Z  M 498.92 326.28 C 498.92 326.313 498.893 326.34 498.86 326.34 L 496.67 326.34 C 496.637 326.34 496.61 326.313 496.61 326.28 L 496.61 325.53 C 496.61 325.497 496.637 325.47 496.67 325.47 L 498.86 325.47 C 498.893 325.47 498.92 325.497 498.92 325.53 L 498.92 326.28 Z " fill="rgb(78,115,223)"/></g><g opacity="0.1"><path d=" M 483.64 320.37 C 483.394 320.33 483.142 320.358 482.91 320.45 C 482.632 320.586 482.308 320.586 482.03 320.45 C 481.712 320.308 481.348 320.308 481.03 320.45 C 480.939 320.502 480.835 320.53 480.73 320.53 C 480.31 320.53 479.96 320.1 479.89 319.53 C 479.975 319.468 480.046 319.39 480.1 319.3 C 480.306 318.932 480.68 318.689 481.1 318.65 C 481.521 318.687 481.895 318.931 482.1 319.3 C 482.249 319.538 482.51 319.681 482.79 319.68 L 482.79 319.68 C 483.201 319.681 483.555 319.968 483.64 320.37 Z " fill="rgb(78,115,223)"/></g><g opacity="0.1"><path d=" M 484.91 318.63 L 484.24 319.06 L 484.65 318.31 C 484.532 318.221 484.388 318.172 484.24 318.17 L 484.09 318.17 L 483.86 318.31 L 483.95 318.13 C 483.788 318.076 483.647 317.971 483.55 317.83 L 483.14 318.09 L 483.4 317.62 C 483.18 317.333 482.842 317.16 482.48 317.15 C 482.042 317.172 481.645 317.418 481.43 317.8 C 481.284 318.04 481.021 318.185 480.74 318.18 L 480.74 318.18 C 480.27 318.18 479.89 318.71 479.89 319.37 C 479.89 320.03 480.27 320.56 480.74 320.56 C 480.844 320.558 480.946 320.534 481.04 320.49 C 481.357 320.344 481.723 320.344 482.04 320.49 C 482.179 320.549 482.329 320.58 482.48 320.58 C 482.631 320.581 482.781 320.551 482.92 320.49 C 483.238 320.346 483.602 320.346 483.92 320.49 C 484.014 320.534 484.116 320.558 484.22 320.56 C 484.69 320.56 485.07 320.03 485.07 319.37 C 485.08 319.114 485.025 318.859 484.91 318.63 Z " fill="rgb(78,115,223)"/></g><ellipse vector-effect="non-scaling-stroke" cx="450.81" cy="350.66" rx="6.149999999999977" ry="10.25" fill="rgb(249,211,154)"/><ellipse vector-effect="non-scaling-stroke" cx="531.76" cy="345.53" rx="6.149999999999977" ry="10.25" fill="rgb(249,211,154)"/><g style="opacity:0.83;"><path d=" M 318.877 64.918 L 433.881 66.342 C 441.787 66.439 448.181 72.582 448.089 79.992 L 446.588 201.241 L 418.171 173.941 L 317.543 172.695 C 309.637 172.597 303.243 166.454 303.335 159.045 L 304.335 78.212 C 304.427 70.802 310.971 64.82 318.877 64.918 Z " fill="rgb(108,72,21)"/><path d=" M 331.369 47.366 L 543.068 78.493 L 515.032 269.17 L 303.334 238.043 L 331.369 47.366 Z " fill="none"/></g><g clip-path="url(#_clipPath_QEA5Rrmonywl5u4m8Wnbc5NByB22mwhY)"><text transform="matrix(1,0,0,1,320.479,103.112)" style="font-family:'Open Sans';font-weight:400;font-size:20px;font-style:normal;fill:#ffffff;stroke:none;">Ups, </text><text transform="matrix(1,0,0,1,320.479,130.349)" style="font-family:'Open Sans';font-weight:400;font-size:20px;font-style:normal;fill:#ffffff;stroke:none;">belum ada </text><text transform="matrix(1,0,0,1,320.479,157.585)" style="font-family:'Open Sans';font-weight:400;font-size:20px;font-style:normal;fill:#ffffff;stroke:none;">produk</text></g><defs><clipPath id="_clipPath_QEA5Rrmonywl5u4m8Wnbc5NByB22mwhY"><rect x="0" y="0" width="106.23" height="81.709" transform="matrix(1,0,0,1,320.479,81.736)"/></clipPath></defs></g></svg>